<?xml version="1.0" encoding="UTF-8"?>
<!DOCTYPE svg PUBLIC "-//W3C//DTD SVG 1.1//EN" "http://www.w3.org/Graphics/SVG/1.1/DTD/svg11.dtd">
<!-- Creator: CorelDRAW (Versão de avaliação) -->
<svg xmlns="http://www.w3.org/2000/svg" xml:space="preserve" width="80mm" height="80mm" version="1.1" style="shape-rendering:geometricPrecision; text-rendering:geometricPrecision; image-rendering:optimizeQuality; fill-rule:evenodd; clip-rule:evenodd"
viewBox="0 0 8000 8000"
 xmlns:xlink="http://www.w3.org/1999/xlink"
 xmlns:xodm="http://www.corel.com/coreldraw/odm/2003">
 <defs>
  <style type="text/css">
   <![CDATA[
    .fil0 {fill:white}
   ]]>
  </style>
 </defs>
 <g id="Camada_x0020_1">
  <metadata id="CorelCorpID_0Corel-Layer"/>
  <path class="fil0" d="M7061.95 6634.46c2.93,-2197.2 -0.81,-3447.4 1.57,-4710.38 0.49,-264.94 12.27,-517.54 -400.24,-513.79 -154.67,1.41 -312.6,-0.05 -467.75,-0.07 11.9,28.63 -22.53,5001.01 5.86,5118.69 7.61,31.5 44.97,82.93 87.9,97.97 64.43,22.57 652.32,7.58 772.66,7.58z"/>
  <path class="fil0" d="M5730.04 6940.47l1334.93 -2.35 -3.02 -303.66c-120.34,0 -708.23,14.99 -772.66,-7.58 -42.93,-15.04 -80.29,-66.47 -87.9,-97.97 -28.39,-117.68 6.04,-5090.06 -5.86,-5118.69 -551.5,-31.94 -460.42,342.17 -465.93,648.45 -2.29,126.81 2.22,252.62 -0.28,379.28 -9.85,499.76 6.61,1004.43 -0.8,1504.9 -10.8,729.42 2.41,1500.61 -0.29,2239 -0.9,245.58 -8.45,515.48 1.81,758.62z"/>
  <path class="fil0" d="M4856.92 6634.46c-0.13,-533.83 -5.62,-3716.04 -10.39,-3735.94 -80.11,-333.98 -456.77,-244.29 -815.21,-250.12 -58.39,-0.95 -169.2,-16.07 -214.57,11.63l175.07 -2.48 0.01 3622.18c0,427.57 -77.22,354.73 865.09,354.73z"/>
  <path class="fil0" d="M5461.14 320.94l-1420.13 1101.5c-127.66,76.5 -273.04,65.16 -443.22,62.32 -334.79,-5.57 -674.23,0.91 -1009.51,0.87 -542.17,-0.06 -660.48,177.5 -1067.16,442.59 -53.92,35.15 -92.98,63.75 -143.33,102.08 -48.02,36.55 -104.39,67.85 -152.97,104.97 -89.07,68.05 -198.51,140.23 -296.24,206.8 -100.45,68.43 -191.74,133.8 -298.6,205.66 -98.57,66.29 -195.63,137.16 -295.55,207.62 -46.91,33.07 -115.42,68.78 -145.58,111.8 -37.87,54.02 -30.17,143.3 12.62,192.77 117.96,136.37 251.78,-12.36 337.29,-64.6 52.57,-32.11 92.39,-65.35 143.7,-101.55l297.13 -206.93c31.84,-20.6 40.38,-19.44 76.37,-46.45 262.15,-196.78 634.19,-428.44 887.65,-622.34 319.53,-244.45 491.56,-213.28 927.82,-217.87 316.07,-3.32 698.06,21.68 1003.98,-1.72 314.6,-24.08 470.19,-225.6 656.49,-352.97 52.44,-35.85 92.46,-67.59 138.57,-106.62l568.51 -438.66c51.84,-47.57 85.26,-70.04 144.46,-113.28 68.89,-50.33 232.38,-195.43 296.86,-222.84 0,117.89 -27.22,296.98 36.26,379.78 78.9,102.92 230.74,67.98 270.99,-33.21 31.66,-79.57 26.74,-769.16 -10.96,-824.91 -68.34,-101.04 -195.62,-76.67 -335.15,-76.66 -128.36,0 -304.94,-10.21 -427.42,0.64 -112.52,9.96 -203.6,133.54 -122.5,246.29 66.47,92.4 225.52,65.87 369.62,64.92z"/>
  <path class="fil0" d="M3521.91 6939.51l1335.8 -0.61 -0.79 -304.44c-942.31,0 -865.09,72.84 -865.09,-354.73l-0.01 -3622.18 -175.07 2.48c-147.81,-21.69 -280.47,147.41 -292.89,279.78 -15.76,168.03 2.52,398.9 -0.13,574.82 -5.72,378.21 7.41,760.44 -0.81,1137.85 -16.45,754.49 -1.01,1530.17 -1.01,2287.03z"/>
  <path class="fil0" d="M2994.69 7261.79c146.9,-14.07 1330.05,-4.78 1563.37,-1.61 516.7,7.04 1046.26,3.73 1563.51,0.23 520.28,-3.52 1044.04,6.94 1563.52,-1.49 130.86,-2.13 252.96,10.52 297.45,-97.46 46.87,-113.77 -43.09,-213.22 -149.32,-220.65 -234.86,-16.43 -547.79,24.53 -768.25,-2.69l-1334.93 2.35 -872.33 -1.57 -1335.8 0.61 -406.53 2.35c-22.97,46.31 -36.04,108.67 -56.4,160.22 -21.93,55.52 -53.8,107.89 -64.29,159.71z"/>
  <path class="fil0" d="M1316.04 4834.17c285.67,-24.53 537.12,10.65 777.39,102.38 110.33,42.12 209.28,92.7 301.79,152.59 105.24,68.14 171.64,130.29 257.69,197.69l-1.78 -267.38c-35.41,-8.96 -69.85,-41.43 -99.68,-61.22 -206.02,-136.73 -545.07,-300.72 -775.62,-305.84 13.23,-31.67 9.13,-792.4 7.03,-888.88l6.12 -315.29c-118.3,-36.21 -298.55,17.69 -366.04,82.61 -104.48,100.53 -104.27,179.04 -106.12,363.09 -3.13,312.74 -0.78,627.24 -0.78,940.25z"/>
  <path class="fil0" d="M1788.98 3448.22l-6.12 315.29c2.1,96.48 6.2,857.21 -7.03,888.88 418.65,9.3 650.05,310.07 875.3,367.06 -0.63,-279.96 51.06,-1333.36 -34.1,-1419.79 -69.01,-70.04 -249.02,-154.58 -345.8,-155.8 -62.71,-0.8 -445,-6.18 -482.25,4.36z"/>
  <path class="fil0" d="M1422.96 5214.53l0 219.65 203.1 0 0 -219.65c192.76,0 513.2,123.7 664.48,247.91 159.41,130.9 180.13,150.41 299.83,313.51 128.62,175.23 218.45,469.71 218.45,697.14l-232.97 0 0 195.9 221.02 0c-9.96,20.65 -16.46,84.89 -23.77,112.92 -9.33,35.72 -19.77,74.67 -32.15,110.52 -73.44,212.53 -174.62,358.01 -330.86,514.19 -12.55,12.55 -19.31,20.42 -33.89,31.63 -17.81,13.68 -22.95,20.58 -38.4,33.07 -67.43,54.46 -100.8,72.41 -169.27,116.73 -76.8,49.72 -210.31,96.7 -298.29,125.06 -50.8,16.37 -181.06,42.28 -244.18,42.28l0 -219.65 -203.1 0 0 219.65c-124.99,0 -338.2,-63.65 -444.09,-116.71 -122.16,-61.21 -239.19,-131.02 -336.97,-229.08 -24.12,-24.2 -45.06,-43.65 -68.8,-68.16 -14,-14.46 -18.95,-23.44 -32.69,-38.76 -130.36,-145.28 -211.51,-328.2 -263.22,-516.11 -8.51,-30.94 -14.62,-95.98 -25.05,-117.58l232.96 0 0 -195.9 -244.91 0c0,-180.81 43,-338.98 108.35,-497.85 23.69,-57.59 46.85,-96.26 78.02,-148.06 83.04,-138.06 198.74,-266.23 328.15,-362.53 177.29,-131.93 323.62,-183.69 530.75,-232.42 28.38,-6.67 104.99,-17.7 137.5,-17.7zm35.37 -249.34l110.94 0c131.11,4.95 263.6,27.27 403.25,65.3 24.35,6.64 42.9,12.75 68.02,21.46 152.55,52.84 291.34,134.9 419.2,230.48 113.05,84.51 240.21,215.27 317.97,331.09l38.26 56.96c33.43,51.78 74.54,119.74 97.85,175.84 19.09,45.92 37.5,81.74 54.11,130.25 52.39,153.11 80.21,298.02 85.81,442.62l0 110.26c-4.99,130.3 -27.44,261.97 -65.71,400.75 -39.22,142.25 -101.54,254.2 -176.65,376.56 -34.36,55.99 -76.18,106.77 -116.9,156.91 -17.87,22 -26.78,29.62 -45.53,49.74 -16.52,17.72 -23.13,29.18 -41.68,47.61 -19.28,19.16 -32.65,26.79 -50.95,44.35 -72.13,69.23 -178.04,146.36 -267.5,197.22 -75.48,42.91 -169.15,88.6 -252.76,116.87 -44.65,15.08 -99.25,33.28 -142.65,42.26 -182.53,37.74 -215.71,42.86 -401.74,43.01l-8.98 0c-362.65,0 -728.03,-158.3 -993.03,-402.28 -17.84,-16.42 -29.37,-22.99 -47.91,-41.43 -79.52,-79.01 -184.85,-215.31 -243.07,-316.47 -65.71,-114.16 -132.99,-263.33 -160.12,-392.97 -37.98,-181.4 -43.13,-214.37 -43.29,-399.25l0 -8.93c0,-124.97 21.57,-225.19 44.3,-329.98 34.73,-160.18 113.27,-312.14 198.06,-450.26 14.01,-22.84 21.77,-31.72 36.04,-53.23 15.76,-23.78 24.31,-32.59 40.82,-54.41 15.19,-20.08 25.49,-31.35 40.04,-49.27l87.22 -97.35c150.36,-149.44 370.31,-290.54 571.2,-358.44 154.06,-52.06 299.88,-79.71 445.38,-85.27z"/>
  <path class="fil0" d="M2370.97 6419.23l-821.96 289.79c-79.59,28.06 -116.78,-5.3 -164.55,-47.13l-337.17 -292.23c-46.62,-39.46 -97.16,-86.03 -60.11,-163.72 6.37,-13.35 11.67,-21.55 22.27,-31.31 96.74,-88.94 189.57,26.87 284.6,109.69l168.53 146.23c14.21,12.06 44.69,34.21 55.58,49.98l754.4 -265.96c55.29,-19.54 68.82,-30.71 112.95,-20.9 86.14,19.13 140.62,170.86 -14.54,225.56z"/>
 </g>
</svg>
