<?xml version="1.0" encoding="UTF-8"?>
<!DOCTYPE svg PUBLIC "-//W3C//DTD SVG 1.1//EN" "http://www.w3.org/Graphics/SVG/1.1/DTD/svg11.dtd">
<!-- Creator: CorelDRAW (Versão de avaliação) -->
<svg xmlns="http://www.w3.org/2000/svg" xml:space="preserve" width="67.7332mm" height="32.1732mm" version="1.1" style="shape-rendering:geometricPrecision; text-rendering:geometricPrecision; image-rendering:optimizeQuality; fill-rule:evenodd; clip-rule:evenodd"
viewBox="0 0 6773.32 3217.32"
 xmlns:xlink="http://www.w3.org/1999/xlink"
 xmlns:xodm="http://www.corel.com/coreldraw/odm/2003">
 <defs>
  <style type="text/css">
   <![CDATA[
    .fil14 {fill:#101740}
    .fil15 {fill:#121B44}
    .fil32 {fill:#141D47}
    .fil28 {fill:#151E48}
    .fil34 {fill:#151F4A}
    .fil10 {fill:#16204B}
    .fil6 {fill:#17224D}
    .fil27 {fill:#1A2551}
    .fil37 {fill:#1A2653}
    .fil38 {fill:#1B2855}
    .fil4 {fill:#1E2C5A}
    .fil26 {fill:#1F2E5D}
    .fil22 {fill:#212F5F}
    .fil3 {fill:#223061}
    .fil2 {fill:#233263}
    .fil23 {fill:#26366A}
    .fil25 {fill:#27386B}
    .fil21 {fill:#293B6E}
    .fil40 {fill:#2C3F74}
    .fil16 {fill:#2E4176}
    .fil5 {fill:#2E447B}
    .fil12 {fill:#30447B}
    .fil1 {fill:#31477E}
    .fil18 {fill:#33487E}
    .fil42 {fill:#384F8A}
    .fil19 {fill:#39508A}
    .fil45 {fill:#3B3B5E}
    .fil30 {fill:#3D5692}
    .fil13 {fill:#3E5A96}
    .fil9 {fill:#415D9A}
    .fil41 {fill:#44619F}
    .fil29 {fill:#4562A1}
    .fil33 {fill:#4663A2}
    .fil7 {fill:#4865A6}
    .fil11 {fill:#4967A8}
    .fil8 {fill:#4A69AA}
    .fil24 {fill:#4D6EB0}
    .fil39 {fill:#4F6FB3}
    .fil36 {fill:#5072B4}
    .fil31 {fill:#5477BC}
    .fil35 {fill:#5579BE}
    .fil20 {fill:#567AC1}
    .fil17 {fill:#587CC3}
    .fil44 {fill:#5E92EB}
    .fil43 {fill:#78A9FD}
    .fil46 {fill:#9CBFFC}
    .fil0 {fill:#EFB927}
   ]]>
  </style>
 </defs>
 <g id="Camada_x0020_1">
  <metadata id="CorelCorpID_0Corel-Layer"/>
  <g id="_1564918602688">
   <path class="fil0" d="M3748.76 1111.88c-3.73,12.29 -1.88,9.54 -11.78,15.13 -25.98,8.95 -23.32,9.17 -60.95,9.08 -24.83,-0.06 -49.66,0 -74.5,0 0,-29.45 5.56,-138.09 -2.87,-156.09l1.54 -21.48c17.48,-5.16 58.9,-2.33 79.28,-2.17 25.12,0.2 51.17,3.37 64.69,17.21 18.49,18.96 14.97,75.13 14.2,108.7 -0.62,26.79 -3.58,24.81 -9.61,29.62zm-334.36 -259.32l0.08 652.16 180.28 0.15c11.78,-8.64 6.79,-21.58 6.77,-51.5l0 -182.65c-5.09,-10.18 -4.33,-20.76 13.23,-21.45 113.74,-4.47 155.39,14.09 271.22,-42.28 10.26,2.27 2.9,8.39 28.59,-25.52 38,-50.18 28.97,-72.46 28.97,-150.02 0,-48.28 3.78,-70.45 -16.15,-102.04 -15.72,-24.91 -38.07,-42.53 -66.22,-55.5 -83.38,-38.41 -219.44,-28.1 -330.75,-28.1 -20.32,0 -40.63,0.01 -60.95,0 -10.24,0 -20.53,-0.26 -30.72,-0.27 -17.25,-0.02 -15.99,-2.54 -24.35,7.02z"/>
   <path class="fil0" d="M3415.61 1956.29l0.15 651.06 179 0.27c11.81,-6.35 6.78,-25.49 6.77,-53.9 -0.01,-42.08 5.05,-167.27 -3.37,-189.01l3.26 -17.52 243.92 0.1c17.05,-17.27 9.57,-37.13 10.22,-83.9 0.56,-40.76 8.14,-33.7 -61.01,-33.7 -64.34,0.01 -128.68,0 -193.02,0l-0.38 -146.53c-5.18,-8.28 -2.63,-9.21 -0.67,-22.02l285.5 0.05c0.45,-0.75 0.91,-2.87 1.03,-2.43l2.35 -51.84c0,-19.12 0,-38.25 0,-57.38l-419.89 0c-10.25,0 -20.56,-0.25 -30.76,-0.26 -17.64,-0.03 -16.57,-2.72 -23.1,7.01z"/>
   <path class="fil0" d="M5524.43 1156.34c4.64,-10.2 1.32,-6.15 10.29,-11.95 17.86,-24.68 70.35,-11.97 82.01,-5.39 25.9,14.6 20.04,43.58 20.04,78.09 -3.4,8.76 4.63,3.45 -9.91,5.91l-7.12 0.71 -94.82 0.15 -0.49 -67.52zm-176.99 -23.63l-6.26 23.78c0.03,59.2 -9.94,229.76 11.51,269.9 3.37,6.32 1.51,2.7 3.79,6.07l2.83 3.83c0.58,0.8 2.27,3.11 2.86,3.91 5.46,7.33 4.89,6.7 10.81,12.73 26.29,26.79 26.43,15.55 60.49,37.49 21.92,14.11 90.73,22.23 118.48,22.66 116.02,1.81 77.56,-1.61 173.46,-21.62 14.51,-5.34 25.3,-13.74 39.94,-19.96 13.23,-3.46 45.29,-47.33 50.94,-78.76 2.4,-13.37 9.18,-31.79 -4.08,-36.67l-131.53 -0.6c-35.76,-0.2 -31.98,-4.03 -41.6,6.77 0.28,22.81 -3.33,19.12 -5.83,35.78l-10.13 2.08c-10.91,-0.09 -28.45,4.22 -37.22,4.24 -8.39,0.01 -26.67,-1.86 -36.6,-5.65 -40.85,-15.62 -14.69,-36.36 -27.48,-65.11 -3.1,-11.55 -1.42,-10.31 1.82,-24.41l289.11 0.11c7.21,-13.55 3.38,-88.99 3.39,-105.68 0.01,-64.62 -3.77,-109.69 -69.99,-146.26 -83.36,-46.02 -298.33,-59.68 -378.97,43.03 -11.1,14.14 -20.02,19.84 -19.74,32.34z"/>
   <path class="fil0" d="M4725.77 1401.22c-20.44,3.34 -49.65,3.58 -63.75,-9.2 -12.38,-11.21 -7.37,-43.82 -7.37,-73.67 0,-54.13 0,-108.27 0,-162.41 -2.54,-4.98 -5.1,6.9 -0.45,-7.47 6.97,-21.56 54.17,-18.04 67.4,-11.55 28.57,14.02 20.48,43.18 20.48,80.17 0,33.76 0,67.51 0,101.26 0,40.09 7.49,73.14 -16.31,82.87zm-247.22 -288.76c-16,60.02 -9.15,136.03 -9.15,202.52 0,64.27 -9.97,122.41 52.17,159.25 77.63,46.03 254.99,48.14 335.5,5.67 12.59,-6.63 7.07,-6.51 21.08,-9.64 10.25,-0.25 24.54,-22.83 29.91,-30.95 29.1,-43.99 17.49,-108.66 17.49,-174.96 0,-39.7 2.73,-89.75 -0.09,-128.18 -2.74,-37.5 -28.46,-62.86 -54.16,-77.63 -75.29,-43.28 -227.95,-49.62 -326.01,-7.84 -22.55,9.61 -52.84,32.76 -64.03,51.07 -8.19,13.41 -3.25,1.87 -2.71,10.69z"/>
   <path class="fil0" d="M6498.87 1152.97l2.3 -3.4c6.32,-12.47 13.81,-17.9 32.86,-19.46 65.8,-5.4 54.39,40.32 54.39,86.98 0,18.24 5.07,159.52 -5.05,174.19 -4.35,6.3 -0.18,1.04 -5.77,5.51l-6.33 3.03c-19.89,7.96 -54.04,3.21 -65.51,-9.42 -11.68,-12.86 -5.6,-54.03 -5.6,-75.42 0,-43.67 4.57,-122.68 -1.29,-162.01zm-174.81 -40.51c-15.12,57.13 -7.77,128.13 -7.77,189.02 0,73.27 -8.8,118.83 36.43,157.35 33.06,28.17 89.09,43.47 144.58,48.63 104.18,9.71 122.82,-10.45 181.17,-14.62l28.25 -9.01c12.61,2.67 16.93,-6.82 33.43,-27.52 45.57,-57.17 30.91,-76.1 30.91,-168.33 0,-43.87 -0.23,-87.8 0.03,-131.66 0.23,-41.95 -7.92,-65.48 -43.95,-91.21 -55.76,-39.83 -155.58,-44.09 -227,-40.43 -65.21,3.35 -124.23,22.53 -165.25,68.25 -18.12,20.19 -11.24,12.9 -10.83,19.53z"/>
   <path class="fil0" d="M4253.42 2492.48c-3.54,10.79 0.86,4.34 -8.5,11.11 -22.65,9.98 -46.74,16.98 -77.79,9.53 -30.22,-7.24 -36.77,-26.56 -28.6,-60.66 5.03,-10.95 5.53,-11.03 13.51,-16.07 4.26,-5.68 -2.11,-2.3 10.04,-9.42 23.18,-13.58 74.45,-8.91 100.97,-10.5 -2.32,37.72 5.6,64.59 -9.63,76.01zm-276.03 -256.03l-3.62 40.51 169.56 0c10.07,-6.74 8.36,-1.12 8.27,-13.51l3.06 -10.17c7.16,-13.9 26.26,-18.32 42.69,-19.04 52.27,-2.29 66.26,13.62 66.3,52.76 0.03,21.9 6.08,42.3 -19.31,35.62 -36.66,-8.07 -129.89,5.58 -167.39,16.43 -29.53,8.54 -68.48,29.82 -86.06,52.6 -9.04,11.72 -15.2,13.22 -18.66,27.06l-9.82 29.81c0.75,61.15 -6.6,111.28 78.36,150.11 32.28,14.76 53.09,15.84 99.19,15.22 46.57,-0.62 58.52,-9.4 94.8,-22.98 5.78,1.05 3.29,2.98 6.39,-3.39 6.24,-9.66 7.48,-11.05 18,-16.5l0.02 39.8 171.99 0.47c11.1,-16.97 6.79,-27.04 6.77,-57.53 -0.01,-61.45 5.71,-289.37 -6.27,-324.52 -4.79,-14.07 -15.44,-33.27 -24.94,-42.65 -8.57,-8.45 -28.92,-22.33 -39.79,-27.84 -78.32,-39.65 -282.07,-57.42 -365.12,37.93 -8.74,10.04 -27.59,25.6 -24.42,39.81z"/>
   <path class="fil0" d="M4567.54 2222.94l-5.61 20.07c2.32,63.81 -11.22,258.86 10.72,291.62 44.19,65.97 149.93,78.98 231,78.47 73.33,-0.47 116.73,-8.2 176.24,-35.58 7.6,-1.13 8.17,-3.64 16.78,-8.52 5.25,-1.89 0.43,1.24 5.59,-3.26 41.27,-36.05 38.43,-80.22 38.43,-123.4 -26.74,0 -69.15,2.46 -93.89,-0.92l-68.92 -2.78c-17.44,0.37 -12.27,-2.27 -21.1,7.08 0.21,10.23 1.16,26.44 -0.86,36.06 -2.21,10.5 -6.43,15.43 -15.02,21.3 -28.82,4.23 -39.06,11.13 -70.9,-0.19 -28.06,-9.98 -23.96,-30.87 -23.92,-67.3 0.05,-39.91 -4.22,-148.26 1.88,-175.52 5.62,-10.88 6.04,-10.26 14.41,-15.07 8.61,-10.48 19.36,-12.74 34.94,-13.49 65.23,-3.16 61.41,37.91 62.78,76.88l177.21 0.1c5.91,-11.32 3.75,-23.7 3.54,-41.81 -1.99,-168.05 -322.63,-165.8 -429.61,-93.77 -12.69,8.55 -41.55,33.89 -43.69,50.03z"/>
   <path class="fil0" d="M5945.35 906.57l0.12 124.19 -14.2 3.11c-13.8,-3.82 -34.1,-4.46 -46.26,0.96l0.48 102.43c22.06,0 46,2.62 67.24,-2.68 -7.08,30.35 -2.6,126.26 -2.6,163.52 0,47.85 -6.73,107.13 17.33,143 46.79,69.72 154.47,61.95 258.42,63.08 0.45,-0.74 0.91,-2.84 1.03,-2.4l2.35 -112.54c-100.08,0 -94.84,4.13 -94.81,-67.51 0.01,-53.77 0,-107.53 0,-161.3 -0.37,-0.75 -0.79,-1.83 -0.91,-2.33l0.72 -15.35 88.23 0.12c10.75,-16.11 6.81,-22.69 6.77,-50.66 -0.03,-20.25 0,-40.5 0,-60.76l-94.81 0 0 -135.01 -182.86 0 -6.24 10.13z"/>
   <path class="fil0" d="M5427.51 1963.04c0.28,67.28 -5.19,515.15 4.41,555.46 8.03,33.68 31.3,63.71 65.34,72.46 17.41,4.47 24.31,13.49 65.45,18.93 31.18,4.13 81.53,1.43 114.59,1.46l9.73 -7.51 0.43 -110.87c-80.39,0 -71.11,-17.11 -71.11,-81.01l0 -462.42 -152.44 -0.05c-22.11,-0.26 -33.62,-4.65 -36.4,13.55z"/>
   <path class="fil0" d="M5032.46 1038.2l0.07 482.69c0.1,27.29 3.73,41.19 -15.54,53.97 -5.92,-0.54 -1.3,-0.8 -10.04,0.3 -10.66,1.35 -3.13,0.82 -11.11,1.97 -13.6,1.95 -13.13,-0.88 -24.95,4.5l0.09 109.56c31.84,0.14 64.02,0.43 93.98,-2.61 35.71,-3.63 53.96,-12.02 84.07,-18.34l20.34 -9.76c6.33,-1.61 -0.6,1.59 5.8,-2.61 9.74,-6.4 27.44,-31.72 32.62,-41.31 11.73,-21.66 12.45,-40 12.37,-72.05l0 -513.06 -166.17 -0.32c-17.49,0.37 -12.05,-2.18 -21.53,7.07z"/>
   <path class="fil0" d="M4037.21 1034.83l0.38 466.64 180.24 0.32c14.09,-26.99 -11.6,-257.7 13.32,-308.32 25.66,-41.73 95.86,-41.37 159.38,-41.33 3.79,-2.01 5.8,-2.91 10.16,-5.93l0 -121.51c-68.13,0 -111.88,14.94 -161.17,52 -8.41,6.33 -10.07,10.01 -18.3,15.51l0 -60.76c-17.76,0 -168.31,-4.8 -184.01,3.38z"/>
   <path class="fil0" d="M5121.6 2141.94l0.28 466.01 179.55 0.28c11.92,-9.89 6.8,-15.89 6.77,-51.13l0 -421.91 -142.22 -0.01c-7.72,-0.03 -16.52,-0.48 -24.01,-0.32 -17.43,0.37 -12.73,-2.4 -20.37,7.08z"/>
   <path class="fil0" d="M4098.51 2017.05c20.95,18.05 33.43,20.97 55.31,33.23l64.01 25.47c7.8,0 81.43,-61.24 93.39,-70.32 31.86,-24.18 62.05,-49.78 92.85,-71.16l14.2 -14.5c-45.68,-24.35 -94.38,-44.32 -139.49,-68.11 -10.95,16.3 -159.78,140.54 -180.27,165.39z"/>
   <path class="fil0" d="M5213.39 960.54c11.95,-8.65 6.78,-21.26 6.77,-53.97 -0.01,-20.26 0,-40.51 0,-60.76 -15.36,0 -173.01,-4.31 -187.1,3.38l0.44 111.25 179.89 0.1z"/>
   <path class="fil0" d="M5121.89 1956.29l0.14 108.39 179.4 0.46c11.85,-10.62 6.78,-22.2 6.77,-54.84 -0.01,-20.25 0,-40.51 0,-60.76l-142.22 0c-7.72,-0.03 -16.53,-0.49 -24.03,-0.32 -17.46,0.37 -12.94,-2.44 -20.06,7.07z"/>
   <path class="fil1" d="M3594.76 1504.87l-180.28 -0.15 -0.08 -652.16c-21.37,17.17 -16.05,31.6 -16.04,67.51l0 604.18 182.85 0c4.52,-6.72 8.54,-13.17 13.55,-19.38z"/>
   <path class="fil2" d="M5677.3 2611.35c-33.06,-0.03 -83.41,2.67 -114.59,-1.46 -41.14,-5.44 -48.04,-14.46 -65.45,-18.93 -34.04,-8.75 -57.31,-38.78 -65.34,-72.46 -9.6,-40.31 -4.13,-488.18 -4.41,-555.46l-13.9 10.63c-0.21,71.02 -4.94,510.53 3.81,558.95 18.71,103.55 172.13,95.36 249.73,95.36 6.41,-9.54 6.85,-4.74 10.15,-16.63z"/>
   <path class="fil3" d="M4211.06 1511.06l-180.53 -0.19 -0.08 -465.92c-17.5,14.94 -12.58,16.41 -12.42,47.25l0.01 432.05 152.44 0.06c27.78,0.3 28.45,3.72 40.58,-13.25z"/>
   <path class="fil4" d="M3587.99 2617.53l-179.85 -0.22 -0.42 -654.27c-15.29,21.78 -9.36,26.87 -9.36,74.26l0 590.68 182.85 0 6.78 -10.45z"/>
   <path class="fil5" d="M5016.99 1574.86c19.27,-12.78 15.64,-26.68 15.54,-53.97l-0.07 -482.69c-15.71,14.53 -15.73,20.75 -15.5,50.61l0.03 486.05z"/>
   <path class="fil6" d="M4996.67 2569c-8.61,4.88 -9.18,7.39 -16.78,8.52 -6.17,10.84 -3.84,8.97 -16.23,14.41 -6.93,3.04 -12.29,4.8 -18.76,7.66 -87.12,38.52 -319.1,43.67 -381.49,-52.18 -17.18,-26.4 -10.67,-167.87 -10.67,-206.33 0,-26.84 -5.18,-82.66 9.19,-98.07l5.61 -20.07c-11.52,7.11 -16.91,24.09 -20.7,37.68 -7.13,25.59 -3.93,143.03 -3.93,174.97 0,80.41 -12.13,128.99 69.94,169.93 98.19,48.98 345.13,38.81 383.82,-36.52z"/>
   <path class="fil6" d="M6706.72 1483.83l-28.25 9.01c-22,26.9 -136.66,27.92 -178.42,26.87 -52.49,-1.31 -122.06,-20 -152.14,-46.15 -53.01,-46.06 -40.28,-72.68 -40.28,-158.58 0,-50.35 -6.87,-150.35 8.72,-192.39 -22.2,15.91 -19.38,65.03 -19.36,91.13 0.02,37.13 0,74.26 0,111.39 0,89.29 -5.28,130.12 52.04,167.52 75.36,49.15 241.43,53.81 339.73,7.08 17.65,-8.39 14.03,-7.03 17.96,-15.88z"/>
   <path class="fil7" d="M4979.89 2577.52c-59.51,27.38 -102.91,35.11 -176.24,35.58 -81.07,0.51 -186.81,-12.5 -231,-78.47 -21.94,-32.76 -8.4,-227.81 -10.72,-291.62 -14.37,15.41 -9.19,71.23 -9.19,98.07 0,38.46 -6.51,179.93 10.67,206.33 62.39,95.85 294.37,90.7 381.49,52.18 6.47,-2.86 11.83,-4.62 18.76,-7.66 12.39,-5.44 10.06,-3.57 16.23,-14.41z"/>
   <path class="fil8" d="M6316.35 1122.59c-15.59,42.04 -8.72,142.04 -8.72,192.39 0,85.9 -12.73,112.52 40.28,158.58 30.08,26.15 99.65,44.84 152.14,46.15 41.76,1.05 156.42,0.03 178.42,-26.87 -58.35,4.17 -76.99,24.33 -181.17,14.62 -55.49,-5.16 -111.52,-20.46 -144.58,-48.63 -45.23,-38.52 -36.43,-84.08 -36.43,-157.35 0,-60.89 -7.35,-131.89 7.77,-189.02 -10.88,4.51 -8.98,-1 -7.71,10.13z"/>
   <path class="fil9" d="M4465.01 1136.09c-5.35,33.68 -10.45,261.54 3.97,296.09 40.59,97.21 219.48,99.24 313.57,80.57 33.87,-6.71 49.1,-15.69 78.67,-28.74 4.63,0.08 2.54,2.75 8.8,-1.64 9.88,-6.95 4.92,-4.25 8.13,-12.11 -14.01,3.13 -8.49,3.01 -21.08,9.64 -80.51,42.47 -257.87,40.36 -335.5,-5.67 -62.14,-36.84 -52.17,-94.98 -52.17,-159.25 0,-66.49 -6.85,-142.5 9.15,-202.52 -10.36,3.48 -5.82,-0.27 -11.8,8.84 -6.11,9.31 -3.06,9.4 -1.74,14.79z"/>
   <path class="fil10" d="M4861.22 1484.01c-29.57,13.05 -44.8,22.03 -78.67,28.74 -94.09,18.67 -272.98,16.64 -313.57,-80.57 -14.42,-34.55 -9.32,-262.41 -3.97,-296.09 -20.3,14.99 -13.53,73.09 -13.53,94.51 0,44.75 -4.71,175.66 7.1,208.94 36.43,102.69 250.51,103.02 327.82,81.02 29.5,-8.4 32.73,-8.78 59.15,-21.88 15.65,-7.76 9.75,-1.63 15.67,-14.67z"/>
   <polygon class="fil11" points="3407.72,1963.04 3408.14,2617.31 3587.99,2617.53 3594.76,2607.62 3415.76,2607.35 3415.61,1956.29 "/>
   <path class="fil12" d="M5725.41 1491.46c-95.9,20.01 -57.44,23.43 -173.46,21.62 -27.75,-0.43 -96.56,-8.55 -118.48,-22.66 -34.06,-21.94 -34.2,-10.7 -60.49,-37.49 -5.92,-6.03 -5.35,-5.4 -10.81,-12.73 -0.59,-0.8 -2.28,-3.11 -2.86,-3.91l-2.83 -3.83c-2.28,-3.37 -0.42,0.25 -3.79,-6.07 -21.45,-40.14 -11.48,-210.7 -11.51,-269.9l-7.68 17.96 -1.19 174.28c-0.07,52.96 3.09,105.64 61.52,137.04 86.81,46.64 216.71,48.39 314.05,18.46 12.41,-3.82 13.4,-5.89 17.53,-12.77z"/>
   <path class="fil13" d="M5112.83 2155.44l0.23 464.32 178.21 0.21c4.59,-2.2 0.91,1.05 5.22,-3.86 1.1,-1.25 4.35,-6.88 4.94,-7.88l-179.55 -0.28 -0.28 -466.01c-4.25,5.35 -6.18,8.03 -8.77,13.5z"/>
   <path class="fil14" d="M5765.35 1471.5c-14.64,6.22 -25.43,14.62 -39.94,19.96 -4.13,6.88 -5.12,8.95 -17.53,12.77 -97.34,29.93 -227.24,28.18 -314.05,-18.46 -58.43,-31.4 -61.59,-84.08 -61.52,-137.04l1.19 -174.28 7.68 -17.96 6.26 -23.78c-12.44,6.51 -6.13,0.89 -12.47,16.67 -15.78,39.3 -9.84,140.18 -9.84,189.23 0,68.75 -3.26,122.11 71.08,158.67 86.97,42.78 239.81,50.01 336.5,1.19 13.64,-6.88 26.28,-13.67 32.64,-26.97z"/>
   <path class="fil15" d="M6212.33 1519.12c-99.36,-1.05 -210.99,8.13 -256.95,-63.03 -23.95,-37.09 -17.57,-94.54 -17.57,-144.48 0,-52.14 -1.9,-107.93 0.5,-159.38l-65.48 0.03 -0.26 -100.55c-8.2,7.73 -5.54,3.94 -5.9,19.92l0.26 88.09 64.34 0 -0.14 243.16c0.29,29.2 7.54,46.53 19.65,64.8 42.72,64.47 157.19,59.26 224.33,59.98 41.01,0.43 31.24,3.03 37.22,-8.54z"/>
   <path class="fil15" d="M5291.27 2619.97l-178.21 -0.21 -0.23 -464.32c-10.66,6.46 -7.8,1.08 -8.19,19.92 -2.85,136.91 0.39,314.14 0.39,452.62l166.25 0.4c19.22,-0.39 13.61,2.45 19.99,-8.41z"/>
   <path class="fil16" d="M4654.65 1155.94l7.52 -2.47c77.54,-19.45 63.6,52.45 63.6,80.5 0,55.75 0,111.5 0,167.25 23.8,-9.73 16.31,-42.78 16.31,-82.87 0,-33.75 0,-67.5 0,-101.26 0,-36.99 8.09,-66.15 -20.48,-80.17 -13.23,-6.49 -60.43,-10.01 -67.4,11.55 -4.65,14.37 -2.09,2.49 0.45,7.47z"/>
   <path class="fil17" d="M5878.58 1041.58l0.32 102.65 65.66 -0.05c-2.85,49.85 -0.64,106.12 -0.64,157.3 0,48.92 -6.59,111.52 16.97,146 48.59,71.11 149.42,64.37 254.83,64.37 5.95,-1.38 0.11,2.53 5.83,-2.22 6.7,-5.58 0.76,-0.33 4.33,-5.45 -103.95,-1.13 -211.63,6.64 -258.42,-63.08 -24.06,-35.87 -17.33,-95.15 -17.33,-143 0,-37.26 -4.48,-133.17 2.6,-163.52 -21.24,5.3 -45.18,2.68 -67.24,2.68l-0.48 -102.43 -6.43 6.75z"/>
   <path class="fil18" d="M5872.57 1051.71l0.26 100.55 65.48 -0.03c-2.4,51.45 -0.5,107.24 -0.5,159.38 0,49.94 -6.38,107.39 17.57,144.48 45.96,71.16 157.59,61.98 256.95,63.03 4.39,-0.38 3.39,7.47 3.39,-7.27 -105.41,0 -206.24,6.74 -254.83,-64.37 -23.56,-34.48 -16.97,-97.08 -16.97,-146 0,-51.18 -2.21,-107.45 0.64,-157.3l-65.66 0.05 -0.32 -102.65c-6.36,7.07 -2.02,0.28 -6.01,10.13z"/>
   <path class="fil19" d="M3601.53 1270.72c52.21,2.29 256.74,4.1 284.45,-63.73 -115.83,56.37 -157.48,37.81 -271.22,42.28 -17.56,0.69 -18.32,11.27 -13.23,21.45z"/>
   <path class="fil4" d="M4214.44 2607.75c-43.45,9.55 -49.94,15.94 -101.61,14.39 -98.42,-2.96 -166.69,-47.18 -158.91,-149.59 1.79,-23.47 6.83,-22.25 8.49,-24.03l9.82 -29.81c-10.59,5.87 -8.03,5.18 -14.2,17.88 -27.86,57.3 -19.67,136.07 37.29,170.16 73.49,43.97 208.62,32.1 219.12,1z"/>
   <path class="fil20" d="M4030.45 1044.95l0.08 465.92 180.53 0.19c2.94,-3.47 4.43,-5.53 6.77,-9.27l-180.24 -0.32 -0.38 -466.64c-2.06,3.17 -4.01,6.18 -6.76,10.12z"/>
   <path class="fil21" d="M4098.51 2017.05c-5.61,4.87 -13.91,15.33 -16.13,23.63 14.76,3.42 44.4,20.4 59.82,28.13 21.51,10.78 41.84,18.57 62.08,29.25l24.15 -19.81c25.89,-20.54 170.48,-129.22 175.64,-143.98 -30.8,21.38 -60.99,46.98 -92.85,71.16 -11.96,9.08 -85.59,70.32 -93.39,70.32l-64.01 -25.47c-21.88,-12.26 -34.36,-15.18 -55.31,-33.23z"/>
   <path class="fil22" d="M4747.96 2260.07c85.76,-16.41 92.94,10.45 92.94,70.88l152.48 0.11c26.33,0.32 25.49,2.7 37.15,-13.16l-178.61 -0.68c-0.27,-29.98 3.04,-50.86 -15.97,-65.59 -17,-13.18 -48.83,-10.09 -73.58,-6.63 -8.37,4.81 -8.79,4.19 -14.41,15.07z"/>
   <path class="fil23" d="M3598.16 2364.71c44.02,0 88.03,0 132.05,0 21.44,0 42.91,-0.1 64.35,0.01 32.98,0.17 37.4,4.58 50.78,-17.43l-243.92 -0.1 -3.26 17.52z"/>
   <path class="fil22" d="M3598.66 980c34.42,-7.58 104.08,-6.55 127.53,18.33 14.88,15.79 14.37,27.73 14.2,56.73 -0.16,27.18 1.22,49.21 -3.41,71.95 9.9,-5.59 8.05,-2.84 11.78,-15.13 4.96,-33.44 9.27,-113.16 -14.01,-131.96 -27.55,-22.26 -90.07,-14.95 -131.2,-15.03l-4.89 15.11z"/>
   <path class="fil24" d="M4214.44 2607.75c11.16,3.08 0.4,6.07 11.16,-2.03 7.39,-5.56 6.45,-8.21 9.16,-14.85 -36.28,13.58 -48.23,22.36 -94.8,22.98 -46.1,0.62 -66.91,-0.46 -99.19,-15.22 -84.96,-38.83 -77.61,-88.96 -78.36,-150.11 -1.66,1.78 -6.7,0.56 -8.49,24.03 -7.78,102.41 60.49,146.63 158.91,149.59 51.67,1.55 58.16,-4.84 101.61,-14.39z"/>
   <path class="fil25" d="M4241.15 2587.48c6.99,9.86 3.77,28.4 3.77,40.5 33.86,0 67.72,0 101.58,0 55.09,0 67.93,7.49 84.66,-16.73l-171.99 -0.47 -0.02 -39.8c-10.52,5.45 -11.76,6.84 -18,16.5z"/>
   <path class="fil23" d="M4143.33 2276.96l-169.56 0 3.62 -40.51c-6.16,3.86 -10.08,2.58 -15.57,24.99 -2.8,11.38 -4.73,20.32 -4.73,32.39l176.08 0c4.5,-6.71 6.17,-9.36 10.16,-16.87z"/>
   <path class="fil26" d="M5169.37 1660.48l-20.34 9.76 -18.29 11.74c-55.13,19.91 -107.64,20.77 -167.71,18.07l-0.28 -108.29c-14.77,17.17 -10.16,20.83 -10.11,54 0.04,22.5 0.01,45.01 0.01,67.51 75.1,0 138.25,4.12 199.24,-34.25 11.03,-6.93 11.92,-6.84 17.48,-18.54z"/>
   <polygon class="fil27" points="3601.15,2083.16 3869.04,2084.59 3875.82,2071.08 3602.93,2071.04 "/>
   <path class="fil28" d="M5521.82 1333.58l274 -1.77c2.76,-4.84 1.87,-3.85 3.39,-11.06l-250.76 -0.35c-20.59,-0.51 -23.65,-4.21 -26.63,13.18z"/>
   <path class="fil29" d="M5521.82 1333.58c2.98,-17.39 6.04,-13.69 26.63,-13.18l250.76 0.35 13.54 -11.47 -289.11 -0.11c-3.24,14.1 -4.92,12.86 -1.82,24.41z"/>
   <path class="fil9" d="M5113.12 1969.79l0.14 106.76 178.01 0.31c8.38,-4.08 6.63,-0.15 10.16,-11.72l-179.4 -0.46 -0.14 -108.39c-9.16,6.79 -5.62,2.94 -8.77,13.5z"/>
   <path class="fil30" d="M6501.17 1149.57c21.15,-12.81 53.41,-9.76 67.79,2.28 15.56,13.03 10.57,48.86 10.57,75.37 0,42.03 4.86,133.33 -1.93,169.57 5.59,-4.47 1.42,0.79 5.77,-5.51 10.12,-14.67 5.05,-155.95 5.05,-174.19 0,-46.66 11.41,-92.38 -54.39,-86.98 -19.05,1.56 -26.54,6.99 -32.86,19.46z"/>
   <path class="fil31" d="M4762.37 2245c24.75,-3.46 56.58,-6.55 73.58,6.63 19.01,14.73 15.7,35.61 15.97,65.59l178.61 0.68 6.77 -9.41 -177.21 -0.1c-1.37,-38.97 2.45,-80.04 -62.78,-76.88 -15.58,0.75 -26.33,3.01 -34.94,13.49z"/>
   <path class="fil32" d="M5291.27 2076.86l-178.01 -0.31 -0.14 -106.76 -8.05 3.46 -0.04 114.68 179.47 0c3.25,-4.66 3.91,-6.04 6.77,-11.07z"/>
   <path class="fil15" d="M6501.17 1149.57l-2.3 3.4c25.26,0 49.3,-7.24 64.99,10.76 12.13,13.91 7.41,49.29 7.41,73.62 0,54.16 0,108.32 0,162.47l6.33 -3.03c6.79,-36.24 1.93,-127.54 1.93,-169.57 0,-26.51 4.99,-62.34 -10.57,-75.37 -14.38,-12.04 -46.64,-15.09 -67.79,-2.28z"/>
   <path class="fil33" d="M5024.3 862.69l0.26 107.74 182.05 0.56c7.2,-5.4 4.49,-0.9 6.78,-10.45l-179.89 -0.1 -0.44 -111.25c-3.2,4.64 -6.19,8.96 -8.76,13.5z"/>
   <path class="fil8" d="M3601.15 2083.16l1.78 -12.12 272.89 0.04 10.16 -9.89 -285.5 -0.05c-1.96,12.81 -4.51,13.74 0.67,22.02z"/>
   <path class="fil34" d="M5206.61 970.99l-182.05 -0.56 -0.26 -107.74c-12.79,8.43 -7.33,18.21 -7.32,54 0.01,21.38 0.01,42.75 0.01,64.13l182.85 0 6.77 -9.83z"/>
   <path class="fil35" d="M4962.75 1591.76l0.28 108.29c60.07,2.7 112.58,1.84 167.71,-18.07l18.29 -11.74c-30.11,6.32 -48.36,14.71 -84.07,18.34 -29.96,3.04 -62.14,2.75 -93.98,2.61l-0.09 -109.56 -8.14 10.13z"/>
   <path class="fil36" d="M3598.66 980l4.89 -15.11c41.13,0.08 103.65,-7.23 131.2,15.03 23.28,18.8 18.97,98.52 14.01,131.96 6.03,-4.81 8.99,-2.83 9.61,-29.62 0.77,-33.57 4.29,-89.74 -14.2,-108.7 -13.52,-13.84 -39.57,-17.01 -64.69,-17.21 -20.38,-0.16 -61.8,-2.99 -79.28,2.17l-1.54 21.48z"/>
   <path class="fil2" d="M4231.15 1193.47c10.52,-2.71 17.23,-9.12 27.71,-13.11 39.02,-14.83 79.02,-10.52 121.51,-10.52 5.2,-7.74 5.9,-8.52 10.16,-17.7 -63.52,-0.04 -133.72,-0.4 -159.38,41.33z"/>
   <path class="fil37" d="M4154.66 2253.28l-3.06 10.17c24.82,-9 45.17,-9.73 70.16,-0.54 25.46,9.35 24.41,26.42 22.58,59.71l10.86 -5.17c0,-34.94 5.69,-54.12 -22.38,-65.85 -25.21,-10.55 -48.63,-7.99 -78.16,1.68z"/>
   <path class="fil38" d="M4152.04 2436.39c-7.98,5.04 -8.48,5.12 -13.51,16.07 13.27,-6.96 25.55,-12.73 45.35,-13.58 19.42,-0.83 41.33,0.09 61.04,0.09l0 64.62c9.36,-6.77 4.96,-0.32 8.5,-11.11l1.8 -67.38c-46.66,3.61 -58.06,-0.79 -103.18,11.29z"/>
   <path class="fil37" d="M5534.72 1144.39c-8.97,5.8 -5.65,1.75 -10.29,11.95 26.67,-5.79 46.8,-12.1 72.91,2.07 25.44,13.81 22.4,29.47 22.4,65.3l7.12 -0.71c17.67,-74.79 -27.42,-93.54 -92.14,-78.61z"/>
   <path class="fil39" d="M4154.66 2253.28c29.53,-9.67 52.95,-12.23 78.16,-1.68 28.07,11.73 22.38,30.91 22.38,65.85l-10.86 5.17c25.39,6.68 19.34,-13.72 19.31,-35.62 -0.04,-39.14 -14.03,-55.05 -66.3,-52.76 -16.43,0.72 -35.53,5.14 -42.69,19.04z"/>
   <path class="fil40" d="M5931.27 1033.87l14.2 -3.11 -0.12 -124.19c-17.7,11.68 -14.1,26.13 -14.08,54 0.02,24.43 0,48.87 0,73.3z"/>
   <path class="fil29" d="M4152.04 2436.39c45.12,-12.08 56.52,-7.68 103.18,-11.29l-1.8 67.38c15.23,-11.42 7.31,-38.29 9.63,-76.01 -26.52,1.59 -77.79,-3.08 -100.97,10.5 -12.15,7.12 -5.78,3.74 -10.04,9.42z"/>
   <path class="fil41" d="M5534.72 1144.39c64.72,-14.93 109.81,3.82 92.14,78.61 14.54,-2.46 6.51,2.85 9.91,-5.91 0,-34.51 5.86,-63.49 -20.04,-78.09 -11.66,-6.58 -64.15,-19.29 -82.01,5.39z"/>
   <path class="fil23" d="M6134.45 1160.43l74.49 -0.77 13.55 -16.79 -88.23 -0.12 -0.72 15.35c0.12,0.5 0.54,1.58 0.91,2.33z"/>
   <path class="fil42" d="M4840.9 2503.08c8.59,-5.87 12.81,-10.8 15.02,-21.3 2.02,-9.62 1.07,-25.83 0.86,-36.06 -5.99,9.25 -10.24,11.84 -15.88,20.25l0 37.11z"/>
   <path class="fil19" d="M5623.12 1400.1l10.13 -2.08c2.5,-16.66 6.11,-12.97 5.83,-35.78 -4.05,3.66 -12.63,15.3 -15.96,20.25l0 17.61z"/>
   <path class="fil43" d="M2833.52 2666.25l1.67 -1259.59c-23.55,12.62 -42.98,65.4 -108.6,56.6 -43.89,-5.89 -78.27,-36.93 -84.7,-86.77 -3.12,-24.12 0.61,-65.06 -0.79,-94.35l0.17 -294.69c2.55,-84.77 113.53,-123.27 167.02,-59.58l26.9 30.98c-3.41,-60.2 -1.16,-126.31 -1.04,-186.96 0.19,-106.55 4.92,-208.13 -160.49,-206.62 -62.02,0.56 -125.34,-0.03 -187.55,-0.04 4.77,11.52 -9.04,2011.24 2.35,2058.57 3.05,12.67 18.03,33.35 35.24,39.4 25.84,9.07 261.56,3.05 309.82,3.05z"/>
   <path class="fil44" d="M2299.46 2789.31l535.27 -0.94 -1.21 -122.12c-48.26,0 -283.98,6.02 -309.82,-3.05 -17.21,-6.05 -32.19,-26.73 -35.24,-39.4 -11.39,-47.33 2.42,-2047.05 -2.35,-2058.57 -221.14,-12.84 -184.62,137.61 -186.83,260.79 -0.91,51 0.89,101.59 -0.11,152.54 -3.95,200.98 2.65,403.94 -0.32,605.21 -4.33,293.35 0.97,603.5 -0.12,900.45 -0.36,98.77 -3.38,207.31 0.73,305.09z"/>
   <path class="fil43" d="M1949.36 2666.25l-0.22 -885.56c-9.99,12.84 -10.07,51.43 -62.05,72.09 -39.66,15.76 -81.34,0.3 -103.34,-21.63 -41.75,-41.62 -28.37,-157.76 -28.37,-237.53 0,-117.44 -37.99,-318.09 113.15,-299.88 41.47,5 53.04,29.09 69.1,49.36 0.94,1.19 1.71,2.22 2.71,3.4l10.7 10.91c-6.44,-59.58 7.12,-139.45 -5.84,-193.63 -32.12,-134.31 -183.15,-98.25 -326.88,-100.59 -23.41,-0.38 -67.84,-6.46 -86.03,4.68l70.2 -1 0 1456.72c0,171.95 -30.96,142.66 346.87,142.66z"/>
   <path class="fil0" d="M2191.64 127.16l-569.43 442.99c-51.19,30.77 -109.49,26.2 -177.72,25.06 -134.24,-2.24 -270.35,0.37 -404.79,0.35 -217.39,-0.02 -264.83,71.39 -427.89,178 -21.63,14.13 -37.29,25.64 -57.48,41.05 -19.25,14.7 -41.86,27.29 -61.33,42.21 -35.72,27.37 -79.6,56.4 -118.78,83.17 -40.29,27.53 -76.89,53.81 -119.74,82.71 -39.52,26.66 -78.44,55.16 -118.5,83.5 -18.81,13.3 -46.28,27.66 -58.38,44.96 -15.18,21.73 -12.1,57.63 5.06,77.53 47.3,54.84 100.96,-4.97 135.25,-25.98 21.08,-12.91 37.04,-26.28 57.62,-40.84l119.14 -83.22c12.76,-8.29 16.19,-7.82 30.62,-18.68 105.12,-79.14 254.29,-172.3 355.92,-250.28 128.12,-98.31 197.1,-85.78 372.03,-87.63 126.74,-1.33 279.9,8.72 402.57,-0.69 126.14,-9.68 188.53,-90.73 263.23,-141.95 21.03,-14.42 37.07,-27.18 55.56,-42.88l227.96 -176.41c20.78,-19.13 34.19,-28.17 57.92,-45.56 27.63,-20.24 93.18,-78.6 119.04,-89.62 0,47.41 -10.92,119.44 14.53,152.74 31.64,41.39 92.53,27.33 108.66,-13.36 12.7,-32 10.73,-309.33 -4.39,-331.75 -27.4,-40.64 -78.44,-30.84 -134.39,-30.83 -51.47,0 -122.27,-4.11 -171.38,0.26 -45.12,4 -81.64,53.7 -49.12,99.04 26.65,37.17 90.43,26.5 148.21,26.11z"/>
   <path class="fil44" d="M1414.06 2788.93l535.62 -0.25 -0.32 -122.43c-377.83,0 -346.87,29.29 -346.87,-142.66l0 -1456.72 -70.2 1c-59.27,-8.73 -112.46,59.28 -117.44,112.52 -6.32,67.57 1.01,160.42 -0.06,231.17 -2.29,152.1 2.97,305.82 -0.32,457.6 -6.6,303.43 -0.41,615.39 -0.41,919.77z"/>
   <path class="fil45" d="M1202.66 2918.54c58.91,-5.66 533.31,-1.93 626.87,-0.65 207.18,2.83 419.52,1.5 626.92,0.09 208.62,-1.41 418.63,2.79 626.93,-0.6 52.47,-0.85 101.43,4.24 119.27,-39.19 18.79,-45.76 -17.28,-85.75 -59.88,-88.74 -94.17,-6.61 -219.64,9.87 -308.04,-1.08l-535.27 0.94 -349.78 -0.63 -535.62 0.25 -163 0.94c-9.21,18.63 -14.45,43.7 -22.62,64.44 -8.79,22.33 -21.57,43.39 -25.78,64.23z"/>
   <path class="fil44" d="M529.57 1942.23c114.55,-9.86 215.37,4.29 311.71,41.18 44.24,16.93 83.92,37.27 121.02,61.36 42.19,27.4 68.82,52.4 103.32,79.51l-0.71 -107.54c-14.2,-3.6 -28.01,-16.66 -39.97,-24.62 -82.61,-54.98 -218.56,-120.93 -311.01,-122.99 5.31,-12.74 3.67,-318.68 2.82,-357.48l2.46 -126.8c-47.44,-14.56 -119.71,7.11 -146.77,33.22 -41.89,40.43 -41.81,72.01 -42.55,146.02 -1.26,125.78 -0.32,252.26 -0.32,378.14z"/>
   <path class="fil43" d="M719.21 1384.85l-2.46 126.8c0.85,38.8 2.49,344.74 -2.82,357.48 92.45,2.06 228.4,68.01 311.01,122.99 11.96,7.96 25.77,21.02 39.97,24.62l-0.53 -231.13c-5.08,8.07 -9.54,32.46 -24.44,49.34 -0.67,0.77 -1.67,1.83 -2.37,2.56 -28.46,29.33 -72.38,37.34 -107.05,22.79 -75.1,-31.51 -58.75,-106.29 -58.75,-178.12 0,-31.76 -3.51,-93.84 1.03,-122 11.75,-72.79 131.24,-128.04 185.15,-14.18 2.03,4.3 1.21,2.62 3.48,6.74l4.09 6.33c-0.46,-63.41 -5.42,-103.91 -39.6,-138.7 -27.67,-28.17 -74.54,-36.78 -113.34,-37.27 -25.15,-0.32 -178.44,-2.49 -193.37,1.75z"/>
   <path class="fil46" d="M1949.14 1780.69l1.9 -423.28 -10.7 -10.91c-1,-1.18 -1.77,-2.21 -2.71,-3.4 -16.06,-20.27 -27.63,-44.36 -69.1,-49.36 -151.14,-18.21 -113.15,182.44 -113.15,299.88 0,79.77 -13.38,195.91 28.37,237.53 22,21.93 63.68,37.39 103.34,21.63 51.98,-20.66 52.06,-59.25 62.05,-72.09z"/>
   <path class="fil46" d="M2835.19 1406.66l0 -447.81 -26.9 -30.98c-53.49,-63.69 -164.47,-25.19 -167.02,59.58l-0.17 294.69c1.4,29.29 -2.33,70.23 0.79,94.35 6.43,49.84 40.81,80.88 84.7,86.77 65.62,8.8 85.05,-43.98 108.6,-56.6z"/>
   <path class="fil46" d="M1064.38 1785.61l1.14 -226.54 -4.09 -6.33c-2.27,-4.12 -1.45,-2.44 -3.48,-6.74 -53.91,-113.86 -173.4,-58.61 -185.15,14.18 -4.54,28.16 -1.03,90.24 -1.03,122 0,71.83 -16.35,146.61 58.75,178.12 34.67,14.55 78.59,6.54 107.05,-22.79 0.7,-0.73 1.7,-1.79 2.37,-2.56 14.9,-16.88 19.36,-41.27 24.44,-49.34z"/>
   <g>
    <path class="fil45" d="M572.44 2095.2l0 88.34 81.44 0 0 -88.34c77.3,0 205.78,49.75 266.44,99.7 63.92,52.64 72.23,60.49 120.22,126.08 51.58,70.48 87.6,188.9 87.6,280.37l-93.42 0 0 78.79 88.62 0c-3.99,8.3 -6.6,34.13 -9.53,45.4 -3.74,14.37 -7.92,30.04 -12.89,44.46 -29.45,85.46 -70.02,143.97 -132.66,206.79 -5.04,5.04 -7.75,8.2 -13.59,12.71 -7.14,5.51 -9.2,8.28 -15.4,13.3 -27.04,21.91 -40.42,29.12 -67.87,46.95 -30.8,19.99 -84.33,38.89 -119.61,50.29 -20.37,6.59 -72.6,17.01 -97.91,17.01l0 -88.34 -81.44 0 0 88.34c-50.11,0 -135.6,-25.6 -178.06,-46.94 -48.99,-24.62 -95.91,-52.69 -135.12,-92.13 -9.67,-9.73 -18.07,-17.55 -27.58,-27.41 -5.62,-5.81 -7.6,-9.43 -13.11,-15.59 -52.27,-58.43 -84.81,-131.99 -105.54,-207.56 -3.42,-12.44 -5.87,-38.6 -10.05,-47.28l93.41 0 0 -78.79 -98.2 0c0,-72.72 17.24,-136.33 43.45,-200.22 9.49,-23.16 18.78,-38.71 31.28,-59.54 33.3,-55.52 79.69,-107.07 131.58,-145.8 71.08,-53.06 129.76,-73.88 212.81,-93.47 11.38,-2.69 42.1,-7.12 55.13,-7.12zm14.19 -100.28l44.48 0c52.57,2 105.7,10.97 161.69,26.27 9.77,2.66 17.21,5.12 27.28,8.62 61.17,21.26 116.81,54.26 168.08,92.7 45.33,33.98 96.32,86.57 127.5,133.15l15.34 22.91c13.4,20.82 29.89,48.15 39.24,70.71 7.65,18.47 15.04,32.88 21.69,52.39 21.01,61.57 32.17,119.85 34.41,178l0 44.34c-2,52.41 -11,105.36 -26.35,161.17 -15.72,57.21 -40.71,102.23 -70.83,151.45 -13.78,22.51 -30.54,42.93 -46.87,63.1 -7.17,8.85 -10.74,11.91 -18.26,20 -6.62,7.13 -9.27,11.74 -16.71,19.15 -7.73,7.7 -13.09,10.77 -20.43,17.84 -28.92,27.84 -71.39,58.86 -107.26,79.31 -30.27,17.26 -67.82,35.63 -101.35,47 -17.9,6.07 -39.8,13.39 -57.2,16.99 -73.19,15.18 -86.49,17.24 -161.08,17.3l-3.6 0c-145.42,0 -291.93,-63.66 -398.18,-161.78 -7.15,-6.6 -11.78,-9.25 -19.21,-16.66 -31.89,-31.78 -74.12,-86.59 -97.47,-127.28 -26.35,-45.91 -53.32,-105.9 -64.2,-158.03 -15.23,-72.96 -17.29,-86.22 -17.36,-160.57l0 -3.59c0,-50.26 8.65,-90.57 17.76,-132.71 13.93,-64.42 45.43,-125.53 79.42,-181.08 5.62,-9.18 8.73,-12.75 14.45,-21.4 6.32,-9.57 9.75,-13.11 16.37,-21.89 6.09,-8.07 10.22,-12.61 16.06,-19.81l34.97 -39.15c60.29,-60.1 148.48,-116.85 229.03,-144.15 61.78,-20.94 120.24,-32.06 178.59,-34.3z"/>
    <path class="fil45" d="M952.57 2579.69l-329.58 116.54c-31.91,11.29 -46.83,-2.13 -65.98,-18.95l-135.2 -117.53c-18.69,-15.87 -38.96,-34.59 -24.1,-65.84 2.55,-5.37 4.68,-8.66 8.93,-12.59 38.79,-35.77 76.01,10.81 114.12,44.11l67.57 58.81c5.7,4.85 17.92,13.76 22.29,20.1l302.49 -106.96c22.17,-7.85 27.59,-12.35 45.29,-8.4 34.54,7.69 56.39,68.71 -5.83,90.71z"/>
   </g>
  </g>
 </g>
</svg>
