<svg xmlns="http://www.w3.org/2000/svg" width="426" height="364" viewBox="0 0 426 364">
  <g fill="none">
    <ellipse cx="194" cy="12.07" fill="#E6E6E6" rx="193.89" ry="11.32" transform="translate(17 340)"/>
    <path fill="#E6E6E6" d="M199.4 283.53L6.31 283.53C3.15873689 283.524496.605504402 280.971263.6 277.82L.6 6.39C.632847523 3.25828036 3.17811259.735303077 6.31.73L199.4.73C202.54964.735516015 205.1 3.2903552 205.1 6.44L205.1 6.44 205.1 277.82C205.1 280.969645 202.54964 283.524484 199.4 283.53zM6.31.93C3.29680786.935503561.855503561 3.37680786.85 6.39L.85 277.82C.855503561 280.833192 3.29680786 283.274496 6.31 283.28L199.4 283.28C202.411569 283.274484 204.85 280.831574 204.85 277.82L204.85 6.39C204.85 3.3784262 202.411569.935515703 199.4.93L6.31.93zM415.7 283.53L222.6 283.53C219.45036 283.524484 216.9 280.969645 216.9 277.82L216.9 6.39C216.927405 3.2598918 219.469776.73536204 222.6.73L415.7.73C418.830224.73536204 421.372595 3.2598918 421.4 6.39L421.4 277.82C421.4 280.969645 418.84964 283.524484 415.7 283.53L415.7 283.53zM222.6.93C219.588431.935515703 217.15 3.3784262 217.15 6.39L217.15 277.82C217.15 280.831574 219.588431 283.274484 222.6 283.28L415.7 283.28C418.714824 283.274519 421.159002 280.834809 421.17 277.82L421.17 6.39C421.159002 3.37519099 418.714824.935481452 415.7.93L222.6.93z"/>
    <rect width="41.21" height="1" x="14.79" y="334.21" fill="#E0E0E0"/>
    <rect width="41.33" height="1" x="98.67" y="332.21" fill="#E0E0E0"/>
    <rect width="10" height="1" x="183.78" y="332.21" fill="#E0E0E0"/>
    <rect width="46.25" height="1" x="47.58" y="340.75" fill="#E0E0E0"/>
    <rect width="21.6" height="1" x="232.2" y="334.08" fill="#E0E0E0"/>
    <rect width="27.93" height="1" x="262.7" y="334.08" fill="#E0E0E0"/>
    <rect width="62.44" height="1" x="362.89" y="338.31" fill="#E0E0E0"/>
    <rect width="47.61" height="33.27" x="325.83" y="56.23" fill="#E6E6E6"/>
    <rect width="21.47" height="33.27" x="325.83" y="56.23" fill="#F0F0F0"/>
    <path fill="#E0E0E0" d="M336.55,60.74 C340.465699,60.74 343.64,63.9143011 343.64,67.83 C343.64,71.7456989 340.465699,74.92 336.55,74.92 C332.634301,74.92 329.46,71.7456989 329.46,67.83 C329.46,63.9143011 332.634301,60.74 336.55,60.74 Z" opacity=".4"/>
    <path fill="#E0E0E0" d="M340.000015,81.66 C340.000015,83.5709052 338.450905,85.12 336.54,85.12 C334.629095,85.12 333.08,83.5709052 333.08,81.66 C333.08,79.7490948 334.629095,78.1999854 336.54,78.1999854 L336.54,78.1999854 C337.458464,78.1973339 338.340078,78.5610124 338.989533,79.2104671 C339.638988,79.8599218 340.002666,80.7415362 340.000015,81.66 L340.000015,81.66 Z"/>
    <circle cx="336.5" cy="68.31" r="2.02" fill="#FAFAFA"/>
    <rect width="20.59" height="45.2" x="251.21" y="44.31" fill="#F0F0F0"/>
    <rect width="27.32" height="45.2" x="271.23" y="44.31" fill="#E6E6E6"/>
    <path fill="#FFF" d="M261.43 58.6599825C262.588572 58.6559561 263.635128 59.3512861 264.080364 60.4208983 264.5256 61.4905104 264.281547 62.7230688 263.462308 63.542308 262.643069 64.3615471 261.41051 64.6056003 260.340898 64.1603639 259.271286 63.7151275 258.575956 62.6685721 258.579982 61.51 258.585486 59.9382665 259.858266 58.665486 261.43 58.6599825L261.43 58.6599825zM261.43 54.21C262.219767 54.21 262.86 54.8502328 262.86 55.64 262.86 56.4297672 262.219767 57.07 261.43 57.07 260.640233 57.07 260 56.4297672 260 55.64 260 55.2607404 260.15066 54.8970143 260.418837 54.6288373 260.687014 54.3606603 261.05074 54.21 261.43 54.21zM261.43 49.89C262.219767 49.89 262.86 50.5302328 262.86 51.32 262.86 52.1097672 262.219767 52.75 261.43 52.75 260.640233 52.75 260 52.1097672 260 51.32 260 50.9407404 260.15066 50.5770143 260.418837 50.3088373 260.687014 50.0406603 261.05074 49.89 261.43 49.89z"/>
    <rect width="46.4" height="1" x="251.67" y="69.66" fill="#E0E0E0"/>
    <rect width="46.4" height="1" x="251.67" y="73.67" fill="#E0E0E0"/>
    <rect width="46.4" height="1" x="251.67" y="77.68" fill="#E0E0E0"/>
    <rect width="46.4" height="1" x="251.67" y="81.69" fill="#E0E0E0"/>
    <rect width="46.4" height="1" x="251.67" y="85.7" fill="#E0E0E0"/>
    <rect width="1.96" height="1.96" x="259.96" y="70.88" fill="#E0E0E0"/>
    <rect width="1.96" height="1.96" x="259.96" y="75.1" fill="#E0E0E0"/>
    <rect width="1.96" height="1.96" x="259.96" y="78.9" fill="#E0E0E0"/>
    <rect width="1.96" height="1.96" x="259.96" y="83" fill="#E0E0E0"/>
    <rect width="1.96" height="1.96" x="259.96" y="86.98" fill="#E0E0E0"/>
    <path fill="#E0E0E0" d="M211.87,134 L210.87,134 L210.87,95.71 C210.875509,91.4044631 214.364463,87.9155093 218.67,87.91 L251.67,87.91 L251.67,88.91 L218.67,88.91 C214.916747,88.9155073 211.875507,91.9567473 211.87,95.71 L211.87,134 Z"/>
    <path fill="#E0E0E0" d="M209.87,134.07 L208.87,134.07 L208.87,95.43 C208.875512,90.207671 213.107671,85.9755117 218.33,85.97 L251.67,85.97 L251.67,86.97 L218.33,86.97 C213.659955,86.9755104 209.87551,90.7599554 209.87,95.43 L209.87,134.07 Z"/>
    <rect width="31.31" height="33.33" x="69.06" y="38" fill="#E6E6E6"/>
    <rect width="8.02" height="33.33" x="100.37" y="38" fill="#F5F5F5"/>
    <rect width="23.52" height="38.47" x="60.85" y="32.86" fill="#E6E6E6"/>
    <rect width="6.8" height="38.47" x="84.36" y="32.86" fill="#F5F5F5"/>
    <rect width="19.83" height="33.33" x="57.61" y="38" fill="#EBEBEB"/>
    <rect width="4.53" height="33.33" x="77.44" y="38" fill="#F5F5F5"/>
    <rect width="26.01" height="27.69" x="35.2" y="43.64" fill="#E6E6E6"/>
    <rect width="6.66" height="27.69" x="61.21" y="43.64" fill="#F5F5F5"/>
    <rect width="19.54" height="31.96" x="28.38" y="39.37" fill="#E6E6E6"/>
    <rect width="5.65" height="31.96" x="47.91" y="39.37" fill="#F5F5F5"/>
    <rect width="18.98" height="27.69" x="23.18" y="43.64" fill="#E6E6E6"/>
    <rect width="3.76" height="27.69" x="42.17" y="43.64" fill="#F0F0F0"/>
    <rect width="204" height="9.65" x="1" y="71.31" fill="#E6E6E6" transform="rotate(180 103 76.135)"/>
    <polygon fill="#E0E0E0" points="37.61 81.19 48.89 81.19 40.67 93.6 37.61 93.6"/>
    <rect width="1.63" height="12.41" x="35.98" y="81.19" fill="#E0E0E0"/>
    <polygon fill="#E0E0E0" points="164.31 81.19 175.6 81.19 167.38 93.6 164.31 93.6"/>
    <rect width="1.63" height="12.41" x="162.69" y="81.19" fill="#E0E0E0"/>
    <rect width="204" height="9.65" x="217.23" y="89.51" fill="#E6E6E6"/>
    <polygon fill="#E0E0E0" points="384.63 111.79 381.56 111.79 373.34 99.38 384.63 99.38"/>
    <rect width="1.63" height="12.41" x="384.63" y="99.38" fill="#E0E0E0"/>
    <polygon fill="#E0E0E0" points="257.92 111.79 254.85 111.79 246.63 99.38 257.92 99.38"/>
    <rect width="1.63" height="12.41" x="257.92" y="99.38" fill="#E0E0E0"/>
    <path fill="#F0F0F0" d="M158.45 51.89C158.451268 50.4565349 158.238937 49.0308813 157.82 47.66L161.53 44.4 159.2 40.35 154.52 41.94C152.549183 39.8335781 149.998547 38.3581759 147.19 37.7L146.19 32.86 141.52 32.86 140.52 37.7C137.714376 38.3583147 135.166988 39.8338512 133.2 41.94L128.51 40.35 126.18 44.4 129.89 47.66C129.050259 50.4174854 129.050259 53.3625146 129.89 56.12L126.18 59.38 128.51 63.43 133.2 61.84C135.166988 63.9461488 137.714376 65.4216853 140.52 66.08L141.52 70.92 146.19 70.92 147.19 66.08C149.998547 65.4218241 152.549183 63.9464219 154.52 61.84L159.2 63.43 161.53 59.38 157.82 56.12C158.238937 54.7491187 158.451268 53.3234651 158.45 51.89L158.45 51.89zM143.89 59.75C139.709204 59.75 136.32 56.3607956 136.32 52.18 136.32 47.9992044 139.709204 44.61 143.89 44.61 148.070796 44.61 151.46 47.9992044 151.46 52.18 151.46 54.1876888 150.662449 56.1131479 149.242798 57.5327983 147.823148 58.9524487 145.897689 59.75 143.89 59.75zM183.71 54.34C183.223701 53.5323926 182.616675 52.8039611 181.91 52.18L182.91 49.07 180.21 47.6 178.12 50.1C176.294124 49.5915702 174.357974 49.6403221 172.56 50.24L170.35 47.86 167.72 49.46 168.84 52.51C167.491485 53.8467522 166.566358 55.5509335 166.18 57.41L163.01 58.13 163.09 61.2 166.3 61.76C166.778115 63.5942384 167.786916 65.246585 169.2 66.51L168.2 69.62 170.9 71.09 172.99 68.59C174.820476 69.0884666 176.756877 69.0397959 178.56 68.45L180.77 70.83 183.39 69.23 182.27 66.17C183.61824 64.8370397 184.54349 63.1361099 184.93 61.28L188.1 60.56 188.02 57.48 184.82 56.93C184.584892 56.0148923 184.210521 55.1413596 183.71 54.34L183.71 54.34zM178.24 63.76C176.515867 64.8207224 174.322278 64.7371999 172.683795 63.5484436 171.045312 62.3596872 170.28527 60.3002834 170.758662 58.33212 171.232054 56.3639565 172.845463 54.8754264 174.845311 54.5617787 176.845159 54.2481311 178.836801 55.1712605 179.89 56.9 181.322286 59.2509813 180.584717 62.3174816 178.24 63.76L178.24 63.76z"/>
    <g transform="translate(7 215)">
      <rect width="407.62" height="5.13" x=".56" y=".12" fill="#407BFF"/>
      <polygon fill="#407BFF" points="24.84 3.8 24.84 126.14 28.02 126.14 32.02 3.8"/>
      <polygon fill="#407BFF" points="62.38 7.8 62.38 121.14 65.56 121.14 69.56 7.8"/>
      <polygon fill="#000" points="62.38 7.8 62.38 121.14 65.56 121.14 69.56 7.8" opacity=".5"/>
      <polygon fill="#407BFF" points="385.35 3.8 385.35 126.14 382.18 126.14 378.17 3.8"/>
      <polygon fill="#407BFF" points="347.81 7.8 347.81 121.14 344.63 121.14 340.63 7.8"/>
      <polygon fill="#000" points="347.81 7.8 347.81 121.14 344.63 121.14 340.63 7.8" opacity=".5"/>
      <polygon fill="#407BFF" points="392.6 10.74 17.34 10.74 9.04 5.25 400.9 5.25"/>
      <polygon fill="#000" points="392.6 10.74 17.34 10.74 9.04 5.25 400.9 5.25" opacity=".5"/>
    </g>
    <g transform="translate(32 195)">
      <path fill="#407BFF" d="M2.34999998,4.39 L2.34999998,8.39 C2.34999998,9.05327784 2.61235978,9.68962767 3.08,10.16 L6.25,13.33 C6.53079261,13.6090575 6.87338033,13.818036 7.25,13.94 C8.5843922,16.8118817 11.4632498,18.6492014 14.63,18.6501549 L15.82,18.6501549 C17.9935539,18.6634091 20.0819689,17.8058968 21.6189328,16.2689328 C23.1558968,14.7319689 24.0134091,12.6435539 24.0001549,10.47 L24.0001549,1.14 L6.52,1.14 L6.52,1.9 L4.84999998,1.9 C3.47318396,1.89998899 2.35550726,3.01319497 2.34999998,4.39 Z M4.34999999,4.39 C4.34997257,4.25829261 4.40296787,4.13211943 4.49703498,4.03993366 C4.5911021,3.94774789 4.71832003,3.89731209 4.84999999,3.9 L6.52,3.9 L6.52,10.47 C6.52,10.56 6.52,10.65 6.52,10.74 L4.52,8.74 C4.42286165,8.64971967 4.36838345,8.52260386 4.37,8.39 L4.34999999,4.39 Z"/>
      <path fill="#FFF" d="M2.34999998,4.39 L2.34999998,8.39 C2.34999998,9.05327784 2.61235978,9.68962767 3.08,10.16 L6.25,13.33 C6.53079261,13.6090575 6.87338033,13.818036 7.25,13.94 C8.5843922,16.8118817 11.4632498,18.6492014 14.63,18.6501549 L15.82,18.6501549 C17.9935539,18.6634091 20.0819689,17.8058968 21.6189328,16.2689328 C23.1558968,14.7319689 24.0134091,12.6435539 24.0001549,10.47 L24.0001549,1.14 L6.52,1.14 L6.52,1.9 L4.84999998,1.9 C3.47318396,1.89998899 2.35550726,3.01319497 2.34999998,4.39 Z M4.34999999,4.39 C4.34997257,4.25829261 4.40296787,4.13211943 4.49703498,4.03993366 C4.5911021,3.94774789 4.71832003,3.89731209 4.84999999,3.9 L6.52,3.9 L6.52,10.47 C6.52,10.56 6.52,10.65 6.52,10.74 L4.52,8.74 C4.42286165,8.64971967 4.36838345,8.52260386 4.37,8.39 L4.34999999,4.39 Z" opacity=".5"/>
      <path fill="#407BFF" d="M28.14,20 L3,20 C1.8504998,19.8977845 0.780607533,19.3699709 0,18.52 L31.1,18.52 C30.3311041,19.3634594 29.2761051,19.8909589 28.14,20 Z"/>
      <path fill="#FFF" d="M28.14,20 L3,20 C1.8504998,19.8977845 0.780607533,19.3699709 0,18.52 L31.1,18.52 C30.3311041,19.3634594 29.2761051,19.8909589 28.14,20 Z" opacity=".5"/>
      <path fill="#407BFF" d="M366.36,7.76 C366.23,3.76 363.21,2.82 359.27,2.37 L359.27,0.92 C359.259117,0.570454172 358.96967,0.294366315 358.62,0.3 L345,0.3 C344.830239,0.294611984 344.665298,0.356925159 344.541505,0.473215125 C344.417713,0.589505092 344.345222,0.750233458 344.34,0.92 L344.34,0.92 L344.34,19.83 L359.28,19.83 L359.28,17.76 C363.22,17.32 366.24,11.74 366.36,7.76 Z M359.27,15.32 L359.27,4.82 C362.17,5.24 364.17,5.64 363.74,8.54 C363.4,10.86 361.58,15 359.27,15.32 L359.27,15.32 Z"/>
      <path fill="#FFF" d="M22.36,7.76 C22.23,3.76 19.21,2.82 15.27,2.37 L15.27,0.92 C15.2591168,0.570454172 14.9696698,0.294366315 14.62,0.3 L1,0.3 C0.830238639,0.294611984 0.665297663,0.356925159 0.541505118,0.473215125 C0.417712573,0.589505092 0.345222231,0.750233458 0.34,0.92 L0.34,0.92 L0.34,19.83 L15.28,19.83 L15.28,17.76 C19.22,17.32 22.24,11.74 22.36,7.76 Z M15.27,15.32 L15.27,4.82 C18.17,5.24 20.17,5.64 19.74,8.54 C19.4,10.86 17.58,15 15.27,15.32 L15.27,15.32 Z" opacity=".5" transform="translate(344)"/>
    </g>
    <g transform="translate(157 134)">
      <rect width="11.79" height="23.95" x="48.1" y="56.73" fill="#407BFF"/>
      <rect width="11.79" height="23.95" x="48.1" y="56.73" fill="#FFF" opacity=".5"/>
      <polygon fill="#407BFF" points="65.22 81.11 42.88 81.11 48.33 76.32 59.77 76.32"/>
      <polygon fill="#FFF" points="65.22 81.11 42.88 81.11 48.33 76.32 59.77 76.32" opacity=".5"/>
      <polygon fill="#407BFF" points="114.33 73.36 58.49 73.36 68.58 81.14 124.41 81.14"/>
      <polygon fill="#FFF" points="114.33 73.36 58.49 73.36 68.58 81.14 124.41 81.14" opacity=".4"/>
      <polygon fill="#407BFF" points="59.78 81.14 58.49 73.36 68.58 81.14"/>
      <polygon fill="#000" points="59.78 81.14 58.49 73.36 68.58 81.14" opacity=".5"/>
      <rect width="105.49" height="66.18" x=".97" y=".04" fill="#407BFF" rx="1.93"/>
      <rect width="97.72" height="57.67" x="4.8" y="4.18" fill="#000" opacity=".5"/>
      <rect width="49.31" height="33.95" x="50.1" y="16.04" fill="#000" opacity=".4"/>
      <rect width="49.31" height="3.11" x="50.1" y="16.04" fill="#407BFF"/>
      <path fill="#FFF" d="M59.14 34.82L67.2 39.28C67.5074177 39.4282024 67.782651 39.6354769 68.01 39.89 68.1472289 40.0896566 68.2172828 40.32784 68.21 40.57 68.2110813 40.912136 68.0740725 41.2402359 67.83 41.48 67.6045655 41.7208739 67.2899062 41.8583113 66.96 41.86 66.6016516 41.8193438 66.2585101 41.6923815 65.96 41.49L55.56 35.71C55.2205855 35.5408365 55.0060661 35.1942341 55.0060661 34.815 55.0060661 34.4357659 55.2205855 34.0891635 55.56 33.92L65.96 28.14C66.2610599 27.946089 66.6037258 27.8261559 66.96 27.7898712 67.2921156 27.7851162 67.6111584 27.9192592 67.84 28.16 68.0854821 28.3946756 68.2230121 28.7204046 68.22 29.06 68.2287066 29.3023412 68.158524 29.540962 68.02 29.74 67.792651 29.9945231 67.5174177 30.2017976 67.21 30.35L59.14 34.82zM79.88 26.49L71.88 43.68C71.7518701 43.99249 71.5651866 44.2776066 71.33 44.52 71.1135091 44.6892935 70.8447164 44.7777122 70.57 44.77 70.2398331 44.7751019 69.9219237 44.6450481 69.69 44.41 69.4522467 44.1990839 69.3143072 43.8977951 69.31 43.58 69.3388036 43.2293239 69.4410143 42.8886215 69.61 42.58L77.61 25.4C77.7350904 25.0935954 77.9146567 24.8123877 78.14 24.57 78.3597936 24.3985923 78.6312881 24.3069188 78.91 24.3098767 79.2371594 24.3052928 79.5518235 24.4354987 79.78 24.67 80.0088112 24.8813768 80.1392542 25.1784969 80.14 25.49 80.1254069 25.8380261 80.0367694 26.1789397 79.88 26.49zM89.91 34.82L81.85 30.35C81.5459354 30.1963533 81.2716554 29.9897967 81.04 29.74 80.901476 29.540962 80.8312934 29.3023412 80.84 29.06 80.8369879 28.7204046 80.9745179 28.3946756 81.22 28.16 81.4533077 27.9197381 81.7751241 27.7859493 82.11 27.7899106 82.4658673 27.8279741 82.8081244 27.947764 83.11 28.14L93.51 33.92C93.8494145 34.0891635 94.0639339 34.4357659 94.0639339 34.815 94.0639339 35.1942341 93.8494145 35.5408365 93.51 35.71L83.11 41.49C82.8104228 41.6902986 82.4678028 41.8170679 82.11 41.8600882 81.7681413 41.864142 81.4407465 41.7222709 81.21 41.47 80.971125 41.2316499 80.8378397 40.9074424 80.84 40.57 80.8327172 40.32784 80.9027711 40.0896566 81.04 39.89 81.2716554 39.6402033 81.5459354 39.4336467 81.85 39.28L89.91 34.82z"/>
      <rect width="3.34" height="3.34" x="8.81" y="9.5" fill="#FFF"/>
      <rect width="3.34" height="3.34" x="8.81" y="18.15" fill="#FFF"/>
      <rect width="3.34" height="3.34" x="8.81" y="26.79" fill="#FFF"/>
      <rect width="3.34" height="3.34" x="8.81" y="35.43" fill="#FFF"/>
      <rect width="3.34" height="3.34" x="8.81" y="44.07" fill="#FFF"/>
      <rect width="3.34" height="3.34" x="8.81" y="52.71" fill="#FFF"/>
      <rect width="13.31" height="1" x="15.32" y="10.26" fill="#FFF"/>
      <rect width="4.74" height="1" x="18.42" y="18.92" fill="#FFF"/>
      <rect width="4.74" height="1" x="39.05" y="28.64" fill="#FFF"/>
      <rect width="4.74" height="1" x="18.42" y="36.35" fill="#FFF"/>
      <rect width="4.74" height="1" x="25.25" y="36.35" fill="#FFF"/>
      <rect width="12.11" height="1" x="25.25" y="28.64" fill="#FFF"/>
      <rect width="7.97" height="1" x="32.31" y="36.35" fill="#FFF"/>
      <rect width="4.74" height="1" x="32.28" y="54.88" fill="#FFF"/>
      <rect width="4.74" height="1" x="39.12" y="54.88" fill="#FFF"/>
      <rect width="2.65" height="1" x="46.17" y="54.88" fill="#FFF"/>
      <rect width="14.75" height="1" x="25.53" y="18.92" fill="#FFF"/>
      <rect width="4.74" height="1" x="25.25" y="45.38" fill="#FFF"/>
      <rect width="2.74" height="1" x="31.58" y="45.38" fill="#FFF"/>
      <rect width="7.74" height="1" x="36.41" y="45.38" fill="#FFF"/>
    </g>
    <g transform="translate(146 85)">
      <path fill="#407BFF" d="M56.44,21.5 C56.19,33.6 43.62,43.75 28.35,44.15 C23.6605285,44.3081141 18.9927398,43.4448462 14.67,41.62 C13.13,45.42 9.89,48.68 0.6,50.14 C10.29,42.65 4.99,36.31 2.78,30.74 L2.78,30.74 C1.6367036,28.308161 1.06543811,25.6468163 1.11,22.96 C1.36,10.85 13.93,0.72 29.2,0.31 C44.47,-0.1 56.68,9.4 56.44,21.5 Z"/>
      <rect width="13.31" height="1" x="15.79" y="8.83" fill="#FFF"/>
      <rect width="4.74" height="1" x="18.89" y="17.5" fill="#FFF"/>
      <rect width="4.74" height="1" x="39.52" y="27.22" fill="#FFF"/>
      <rect width="4.74" height="1" x="18.89" y="34.93" fill="#FFF"/>
      <rect width="4.74" height="1" x="25.73" y="34.93" fill="#FFF"/>
      <rect width="12.11" height="1" x="25.73" y="27.22" fill="#FFF"/>
      <rect width="7.97" height="1" x="32.78" y="34.93" fill="#FFF"/>
      <rect width="14.75" height="1" x="26.01" y="17.5" fill="#FFF"/>
    </g>
    <g transform="translate(206 107)">
      <polygon fill="#7F3E3B" points="54.17 228.75 46.88 226.57 48.58 208.7 55.87 210.88"/>
      <polygon fill="#000" points="56.47 206.84 49.18 204.67 48.23 214.68 55.6 216.05" opacity=".2"/>
      <path fill="#407BFF" d="M97.32,118.38 C97.32,118.38 47.19,122.61 48.42,144.38 C49.42,162.2 52.07,157.38 46.88,210.38 L59.49,211.08 C59.49,211.08 72.32,167.74 70.59,150.52 C84.72,150.52 117.07,151.76 121.77,139.01 C124.101985,132.535424 125.237118,125.690739 125.12,118.81 L97.32,118.38 Z"/>
      <polygon fill="#263238" points="61.49 213.48 45.01 210.66 45.28 203.37 62.34 207.16"/>
      <path fill="#263238" d="M46.13,223.57 L54.55,225.24 C54.8667552,225.314375 55.0747667,225.617725 55.03,225.94 L54.33,233.94 C54.3045671,234.320715 54.1269867,234.675177 53.8372816,234.923495 C53.5475766,235.171814 53.1701262,235.293093 52.79,235.26 C49.87,234.62 48.49,234.15 44.79,233.41 C42.51,232.96 37.3,231.87 34.13,231.51 C30.96,231.15 31.34,227.45 32.71,227.26 C38.87,226.45 42.37,225.45 44.76,223.91 C45.1547139,223.622044 45.646452,223.500007 46.13,223.57 L46.13,223.57 Z"/>
      <path fill="#407BFF" d="M42.35,225 C43.0127204,225.090051 43.6830732,225.110161 44.35,225.06 C44.4194433,225.062504 44.4815149,225.016985 44.5,224.95 C44.5302891,224.890288 44.5302891,224.819712 44.5,224.76 C44.29,224.55 42.4,222.76 41.43,222.96 C41.2009328,222.997258 41.0118535,223.159326 40.94,223.38 C40.7795542,223.700042 40.802438,224.081439 41,224.38 C41.3537096,224.752326 41.8370888,224.974323 42.35,225 Z M43.96,224.73 C42.57,224.73 41.59,224.57 41.3,224.16 C41.179102,223.963795 41.179102,223.716205 41.3,223.52 C41.3321753,223.411036 41.4197145,223.327303 41.53,223.3 C42,223.2 43.18,224 44,224.74 L43.96,224.73 Z"/>
      <path fill="#407BFF" d="M44.36,225.07 L44.44,225.07 C44.4980334,225.047676 44.5423829,224.999631 44.56,224.94 C44.56,224.85 45.11,222.72 44.47,221.87 C44.3118619,221.638887 44.0500366,221.500494 43.77,221.5 C43.4615255,221.455496 43.1631003,221.629577 43.05,221.92 C42.74,222.71 43.6,224.46 44.27,225.03 C44.2920219,225.056769 44.3253733,225.071592 44.36,225.07 L44.36,225.07 Z M43.84,221.86 C43.979381,221.888723 44.1036837,221.966856 44.19,222.08 C44.4778461,222.870152 44.5093378,223.730926 44.28,224.54 C43.6701289,223.857114 43.3476795,222.965004 43.38,222.05 C43.38,221.95 43.49,221.84 43.75,221.85 L43.84,221.86 Z"/>
      <polygon fill="#7F3E3B" points="21.67 231.53 14.73 228.41 19.53 211.29 26.47 214.41"/>
      <polygon fill="#000" points="27.64 210 20.7 206.88 18.23 215.71 25.17 218.83" opacity=".2"/>
      <path fill="#407BFF" d="M82.4,118.38 C82.07,118.38 26.2,124.13 26.13,143.08 C26.01,174.42 17.06,210.34 17.06,210.34 L28.06,215.81 C28.06,215.81 47.29,176.87 47,152.44 C62.37,148.03 102.13,155.44 106.83,142.7 C110.68,132.28 108.6,118.38 108.6,118.38 L82.4,118.38 Z"/>
      <polygon fill="#263238" points="29.86 217.4 15.06 210.74 16.25 204.68 31.86 210.07"/>
      <path fill="#263238" d="M15.42,222.66 L23.86,224.41 C24.1874914,224.518632 24.3869801,224.849699 24.33,225.19 L23.67,233.94 C23.55,234.89 22.87,235.54 22.14,235.39 L22.14,235.39 C19.22,234.72 17.84,234.2 14.14,233.39 C11.86,232.93 5.65,231.39 2.52,230.6 C-0.61,229.81 0.09,225.8 1.52,225.77 C7.71,225.68 11.72,224.67 14.1,222.94 C14.4815361,222.6663 14.9602048,222.564764 15.42,222.66 L15.42,222.66 Z"/>
      <path fill="#407BFF" d="M12,224.55 C12.5872073,224.226891 13.140049,223.844928 13.65,223.41 C13.7023696,223.361846 13.7252166,223.289497 13.71,223.22 C13.6895563,223.152877 13.6299735,223.105211 13.56,223.1 C13.27,223.1 10.69,222.72 10.02,223.47 C9.87030592,223.643068 9.81769429,223.879821 9.88,224.1 C9.94022673,224.452676 10.1842818,224.746304 10.52,224.87 C11.0359893,224.952075 11.564007,224.837909 12,224.55 L12,224.55 Z M13.13,223.38 C12.04,224.23 11.13,224.64 10.66,224.5 C10.4462237,224.403737 10.2983157,224.202734 10.27,223.97 C10.2362887,223.86474 10.263185,223.74947 10.34,223.67 C10.64,223.31 12,223.28 13.08,223.38 L13.13,223.38 Z"/>
      <path fill="#407BFF" d="M13.6,223.41 L13.67,223.36 C13.7052106,223.308803 13.7052106,223.241197 13.67,223.19 C13.62,223.12 12.79,221.07 11.78,220.76 C11.5155081,220.67624 11.2270846,220.720613 11,220.88 C10.7233169,221.027774 10.5861931,221.34773 10.67,221.65 C10.88,222.48 12.61,223.37 13.5,223.43 L13.6,223.41 Z M11.27,221.13 C11.4037727,221.070947 11.5562273,221.070947 11.69,221.13 C12.3940148,221.594838 12.9330365,222.270365 13.23,223.06 C12.3313814,222.873208 11.5396282,222.346567 11.02,221.59 C10.96,221.51 11.02,221.35 11.2,221.21 L11.27,221.13 Z"/>
      <path fill="#7F3E3B" d="M101.38,57.92 C102.85,61.08 104.06,64.12 105.27,67.28 C106.48,70.44 107.55,73.6 108.54,76.84 C109.53,80.08 110.39,83.4 111.08,86.84 C111.832896,90.4141244 112.208288,94.0574463 112.200134,97.71 C112.1891,99.8546838 111.869144,101.986601 111.25,104.04 C110.858033,105.297173 110.296173,106.494912 109.58,107.6 C109.15675,108.221914 108.678135,108.804285 108.15,109.34 L107.72,109.76 C107.48,109.96 107.22,110.18 106.97,110.35 C106.547052,110.637368 106.098482,110.885086 105.63,111.09 C104.933819,111.388806 104.210481,111.619873 103.47,111.78 C102.885529,111.900848 102.294534,111.98766 101.7,112.04 C100.684219,112.100006 99.6657812,112.100006 98.65,112.04 C96.8460517,111.950612 95.0493188,111.750233 93.27,111.44 C86.6323988,110.231628 80.1307033,108.369215 73.86,105.88 L75.31,100.37 C81.66,101.13 88.14,101.94 94.25,102.22 C95.77,102.22 97.25,102.29 98.63,102.22 C99.2443138,102.182793 99.8555849,102.105966 100.46,101.99 C100.96,101.9 101.39,101.72 101.24,101.73 C101.139354,101.760328 101.04465,101.80768 100.96,101.87 C100.858584,101.928519 100.764575,101.999026 100.68,102.08 L100.68,102.08 C100.713468,102.025239 100.743525,101.968464 100.77,101.91 C100.898209,101.623601 100.998669,101.325571 101.07,101.02 C101.289672,99.9209675 101.380285,98.8000469 101.34,97.68 C101.188184,94.8159952 100.762916,91.9730628 100.07,89.19 C99.39,86.19 98.51,83.27 97.55,80.3 C96.59,77.33 95.55,74.36 94.41,71.4 C93.27,68.44 92.07,65.47 90.89,62.68 L101.38,57.92 Z"/>
      <path fill="#7F3E3B" d="M78.07,101.87 L71.44,98.14 L68.11,105.32 C68.11,105.32 75.86,108.55 77.49,106.53 L78.07,101.87 Z"/>
      <polygon fill="#7F3E3B" points="66.07 99.5 63.04 104.3 68.11 105.27 71.44 98.09"/>
      <path fill="#7F3E3B" d="M85.92,63.62 C84.65,66.81 83.32,69.86 81.92,72.95 C80.52,76.04 79.12,79.08 77.64,82.12 C74.6597378,88.3094622 71.3207256,94.3196841 67.64,100.12 C66.64,101.6 65.64,103.07 64.52,104.54 C63.96,105.28 63.34,106.01 62.68,106.76 C62.32,107.14 62.03,107.49 61.61,107.88 L61.01,108.46 L60.67,108.78 C59.7178783,109.594077 58.5979548,110.188183 57.39,110.52 C56.7534014,110.700592 56.1052321,110.837576 55.45,110.93 C54.3817707,111.058135 53.3050821,111.101603 52.23,111.06 C50.3730228,111.002123 48.522109,110.818368 46.69,110.51 C39.9103353,109.311504 33.2696933,107.428537 26.87,104.89 L28.33,99.37 C34.8,100.15 41.41,100.98 47.63,101.24 C49.0967315,101.294934 50.5653118,101.274907 52.03,101.18 C52.6196247,101.131468 53.204668,101.037861 53.78,100.9 C53.9666149,100.852774 54.1476442,100.785726 54.32,100.7 C54.38,100.7 54.32,100.63 54.05,100.8 C53.9498475,100.851741 53.8586805,100.919272 53.78,101 L53.88,100.88 L54.16,100.57 C54.34,100.39 54.56,100.09 54.77,99.85 C55.18,99.33 55.6,98.77 56.02,98.16 C56.85,96.97 57.66,95.65 58.46,94.31 C60.06,91.63 61.55,88.78 63.01,85.9 C64.47,83.02 65.87,80.08 67.25,77.12 C70,71.22 72.69,65.12 75.25,59.22 L85.92,63.62 Z"/>
      <path fill="#7F3E3B" d="M31.17,100.81 L24.53,97 L21.2,104.18 C21.2,104.18 28.95,107.42 30.59,105.4 L31.17,100.81 Z"/>
      <polygon fill="#7F3E3B" points="19.17 98.45 16.13 103.24 21.2 104.21 24.53 97.03"/>
      <path fill="#7F3E3B" d="M103.09,28.14 L98.85,33.05 L92.38,39.74 L92.87,40.95 C93.3690815,42.1869311 93.6596865,43.4980327 93.73,44.83 C93.88,47.51 93.62,49.78 89.39,51.6 C89.39,51.6 84.95,57.4 95.51,55.79 C106.07,54.18 107.66,48.7 107.66,48.7 C103,45.37 102.72,34.3 103.09,28.14 Z"/>
      <path fill="#263238" d="M81.56 22.6C81.56 23.26 81.23 23.82 80.79 23.84 80.35 23.86 80 23.34 79.99 22.68 79.98 22.02 80.33 21.46 80.76 21.44 81.19 21.42 81.55 21.94 81.56 22.6zM83.77 20.14C83.6395013 20.1389293 83.5186814 20.0709681 83.45 19.96 82.9246462 19.1002895 82.0312994 18.5317961 81.03 18.42 80.8169333 18.4093335 80.6497332 18.2333334 80.6499996 18.02 80.6498554 17.9156549 80.6926246 17.8158413 80.7682748 17.7439735 80.8439251 17.6721058 80.9457994 17.634508 81.05 17.64L81.05 17.64C82.3135757 17.7522807 83.4489877 18.4572751 84.11 19.54 84.2209695 19.7231066 84.1680764 19.9611258 83.99 20.08 83.9228649 20.1181478 83.8472069 20.1387818 83.77 20.14z"/>
      <path fill="#630F0F" d="M81.32,23 C80.7812267,24.8001621 80.0079226,26.5216042 79.02,28.12 C79.8514473,28.5890447 80.8488887,28.662386 81.74,28.32 L81.32,23 Z"/>
      <path fill="#7F3E3B" d="M103.69,19.27 C103.3,27.43 103.48,32.27 99.43,36.59 C96.7764385,39.5143866 92.7204783,40.7268214 88.897305,39.7385038 C85.0741317,38.7501862 82.1138824,35.7240112 81.21,31.88 C79.37,24.65 80.33,12.52 88.21,8.88 C91.6615789,7.17020802 95.7644786,7.43973219 98.9627249,9.5863588 C102.160971,11.7329854 103.96475,15.4279565 103.69,19.27 L103.69,19.27 Z"/>
      <path fill="#263238" d="M107.39,22 C106.212529,25.4611913 104.416774,28.6799987 102.09,31.5 L91.47,33.5 C91.47,33.5 83.08,29.99 85.32,24.21 C83.9,23.01 84.43,19.3 85.43,17.26 C87.09427,18.6271185 89.5103416,18.5632012 91.1,17.11 C91.7518443,18.1300064 92.8423931,18.7873423 94.0487537,18.887382 C95.2551143,18.9874216 96.4390434,18.5187009 97.25,17.62 C98.1724836,18.5127923 99.4598862,18.9219652 100.728542,18.725579 C101.997197,18.5291927 103.10063,17.7499213 103.71,16.62 C105.048426,17.4568056 106.772004,17.3440482 107.99,16.34 L108.14,16.2 C108.283737,18.1641296 108.02862,20.1370373 107.39,22 Z"/>
      <path fill="#FFF" d="M107.39,22 C106.212529,25.4611913 104.416774,28.6799987 102.09,31.5 L91.47,33.5 C91.47,33.5 83.08,29.99 85.32,24.21 C83.9,23.01 84.43,19.3 85.43,17.26 C87.09427,18.6271185 89.5103416,18.5632012 91.1,17.11 C91.7518443,18.1300064 92.8423931,18.7873423 94.0487537,18.887382 C95.2551143,18.9874216 96.4390434,18.5187009 97.25,17.62 C98.1724836,18.5127923 99.4598862,18.9219652 100.728542,18.725579 C101.997197,18.5291927 103.10063,17.7499213 103.71,16.62 C105.048426,17.4568056 106.772004,17.3440482 107.99,16.34 L108.14,16.2 C108.283737,18.1641296 108.02862,20.1370373 107.39,22 Z" opacity=".1"/>
      <path fill="#263238" d="M108.92,12.1 C109.509158,13.4828597 109.200622,15.0848757 108.14,16.15 L107.99,16.29 C106.772004,17.2940482 105.048426,17.4068056 103.71,16.57 C103.10063,17.6999213 101.997197,18.4791927 100.728542,18.675579 C99.4598862,18.8719652 98.1724836,18.4627923 97.25,17.57 C96.4390434,18.4687009 95.2551143,18.9374216 94.0487537,18.837382 C92.8423931,18.7373423 91.7518443,18.0800064 91.1,17.06 C89.5103416,18.5132012 87.09427,18.5771185 85.43,17.21 C85.004499,16.8803356 84.6620375,16.4556833 84.43,15.97 C84.3749283,15.8637584 84.3281232,15.7534319 84.29,15.64 C84.2042224,15.73752 84.1105737,15.8278241 84.01,15.91 C82.9875291,16.7267958 81.5614092,16.8109209 80.45,16.12 C79.5768278,15.5134827 79.0898789,14.490129 79.17,13.43 C79.181447,13.2130917 79.2183673,12.9982826 79.28,12.79 C79.2007211,12.9406851 79.0996314,13.0788411 78.98,13.2 C78.4982596,13.6646959 77.8502947,13.9168063 77.1811685,13.8998902 C76.5120423,13.8829741 75.8776442,13.5984443 75.42,13.11 C74.9540994,12.4048443 74.7973686,11.5396283 74.9863084,10.7158506 C75.1752482,9.89207285 75.6933667,9.18163873 76.42,8.75 C76.9904718,8.417715 77.6398284,8.24501379 78.3,8.25 C79.3394746,8.26510829 80.3462068,8.61588605 81.17,9.25 C80.5143203,7.9486755 80.8885763,6.3643796 82.057269,5.49402406 C83.2259617,4.62366853 84.8510695,4.7189867 85.91,5.72 C85.6820737,4.6756722 86.1139653,3.59792431 87,3 C88.38,2.2 90.68,2.89 91.8,4.23 C91.8,4.23 93.34,0.51 96,0.93 C96.58,1.01 99.31,2.22 99.24,3.2 C99.2548772,3.26245965 99.2548772,3.32754035 99.24,3.39 C99.2773607,3.31329761 99.3208344,3.23972674 99.37,3.17 C99.967339,2.36399593 100.928028,1.90992042 101.93,1.96 C102.998831,2.03880184 104.043477,2.31692181 105.01,2.78 C107.08,3.63 109.28,4.58 110.48,6.47 C111.68,8.36 111.07,11.5 108.92,12.1 Z"/>
      <path fill="#7F3E3B" d="M90,25 C89.7051649,27.0138676 88.7811244,28.8829496 87.36,30.34 C85.55,32.07 84.01,30.34 83.99,27.71 C83.99,25.33 84.88,21.56 86.99,20.86 C89.1,20.16 90.4,22.37 90,25 Z"/>
      <path fill="#263238" d="M122,51.54 C121.25,49.54 117.75,47.54 115.6,47.54 L114.18,47.54 C111.315377,47.5651681 108.45434,47.7487819 105.61,48.09 C99.8939899,48.7223882 94.2182775,49.6772433 88.61,50.95 C86.03,51.63 83.54,52.49 81.56,53.23 C79.04,54.23 77.56,54.9 77.56,54.9 C77.56,54.9 80.32,73.28 81.75,91.54 C82.54,101.71 82.21,111.8 82.47,118.74 L125.13,118.74 C126.6,110.4 126.37,103.13 126.49,88.07 C126.55,79 125.08,59.77 122,51.54 Z"/>
      <path fill="#000" d="M80.82,81.34 C81.14,85.17 81.47,89.19 81.82,93.21 C86.82,85.91 89.58,65.94 89.58,65.94 L80.82,81.34 Z" opacity=".2"/>
      <path fill="#263238" d="M75.14 56.24C69.03 59.68 63.04 77.24 63.04 77.24L77.04 87.79C82.38 82.74 90.19 70.21 91.04 65.2 92.4 57.56 84.93 50.76 75.14 56.24zM63.06 235.44C63.06 237.842439 61.1124387 239.79 58.71 239.79 56.3075613 239.79 54.36 237.842439 54.36 235.44 54.36 233.037561 56.3075613 231.09 58.71 231.09 59.8636917 231.09 60.9701313 231.548302 61.7859145 232.364086 62.6016977 233.179869 63.06 234.286308 63.06 235.44L63.06 235.44zM128 235.44C128 237.842439 129.947561 239.79 132.35 239.79 134.752439 239.79 136.7 237.842439 136.7 235.44 136.7 233.037561 134.752439 231.09 132.35 231.09 131.196308 231.09 130.089869 231.548302 129.274086 232.364086 128.458302 233.179869 128 234.286308 128 235.44L128 235.44zM91.27 234C91.27 236.402439 93.2175613 238.35 95.62 238.35 98.0224387 238.35 99.97 236.402439 99.97 234 99.97 231.597561 98.0224387 229.65 95.62 229.65 93.2175613 229.65 91.27 231.597561 91.27 234L91.27 234zM94.27 228.68L94.27 220.269965 81.81 220.269965C79.3640146 220.266732 76.9231838 220.494409 74.52 220.95L51.32 225.45C50.2407562 225.660304 49.5039241 226.664151 49.6267827 227.756809 49.7496413 228.849467 50.6910019 229.664618 51.79 229.63L94.27 228.68zM94.27 228.68L94.27 220.27 106.74 220.27C109.177587 220.284204 111.608383 220.528623 114 221L140.08 225.16C141.159244 225.370304 141.896076 226.374151 141.773217 227.466809 141.650359 228.559467 140.708998 229.374618 139.61 229.34L94.27 228.68z"/>
      <rect width="15.43" height="38.51" x="86.55" y="181.77" fill="#263238"/>
      <rect width="11" height="17.91" x="88.77" y="163.85" fill="#263238"/>
      <polygon fill="#000" points="88.77 169.11 99.77 171.88 99.77 163.85 88.77 163.85" opacity=".5"/>
      <rect width="5.59" height="23.85" x="53.12" y="123.33" fill="#263238"/>
      <path fill="#407BFF" d="M86.739997,163.85 L86.739997,60.16 C86.7373733,56.2350746 88.4330358,52.5009705 91.39,49.92 L98.78,43.45 C101.268951,41.2672181 104.469519,40.0687832 107.78,40.079922 L134.47,40.079922 L147.49,54 L147.49,163.85 L86.739997,163.85 Z"/>
      <path fill="#407BFF" d="M47,143.789978 L107.9,143.789978 L107.9,163.85 L37.07,163.85 C34.4848767,163.845712 32.0998928,162.457742 30.8190908,160.212207 C29.5382889,157.966672 29.5577129,155.207282 30.87,152.98 L30.87,152.98 C34.2391673,147.275695 40.3750262,143.779815 47,143.789978 Z"/>
      <path fill="#FFF" d="M147.49,54 L147.49,163.85 L37.07,163.85 C34.4848767,163.845712 32.0998928,162.457742 30.8190908,160.212207 C29.5382889,157.966672 29.5577129,155.207282 30.87,152.98 C34.2406366,147.277188 40.3755612,143.78184 47,143.79 L77.67,143.79 C82.7013141,143.79 86.78,139.711314 86.78,134.68 L86.78,60.16 C86.7773733,56.2350746 88.4730358,52.5009705 91.43,49.92 L98.82,43.45 C101.308951,41.2672181 104.509519,40.0687832 107.82,40.079922 L134.51,40.079922 L147.49,54 Z" opacity=".7"/>
      <path fill="#407BFF" d="M95.62,163.850019 L95.62,60.16 C95.6226146,56.2362089 97.3173391,52.5041705 100.27,49.92 L107.66,43.45 C110.148951,41.2672181 113.349519,40.0687832 116.66,40.079922 L137.47,40.079922 C141.227551,40.0770966 144.818608,41.6300838 147.39,44.37 L152.71,50.02 C155.080684,52.5482471 156.400005,55.8841417 156.400005,59.35 L156.400005,153.46 C156.402662,156.218148 155.307486,158.863949 153.356242,160.813317 C151.404998,162.762685 148.758144,163.855316 146,163.850019 L95.62,163.850019 Z"/>
      <path fill="#FFF" d="M95.62,163.850019 L95.62,60.16 C95.6226146,56.2362089 97.3173391,52.5041705 100.27,49.92 L107.66,43.45 C110.148951,41.2672181 113.349519,40.0687832 116.66,40.079922 L137.47,40.079922 C141.227551,40.0770966 144.818608,41.6300838 147.39,44.37 L152.71,50.02 C155.080684,52.5482471 156.400005,55.8841417 156.400005,59.35 L156.400005,153.46 C156.402662,156.218148 155.307486,158.863949 153.356242,160.813317 C151.404998,162.762685 148.758144,163.855316 146,163.850019 L95.62,163.850019 Z" opacity=".5"/>
      <path fill="#407BFF" d="M74.9,130.61 C62.5982876,126.309882 49.2017124,126.309882 36.9,130.61 C34.3460435,131.563397 31.4813785,130.471484 30.21,128.06 L30.21,128.06 C29.07,125.65 30.6,122.53 33.7,121.44 C48.0674088,116.419704 63.7125912,116.419704 78.08,121.44 C81.18,122.52 82.71,125.65 81.57,128.06 L81.57,128.06 C80.2999214,130.461471 77.4482051,131.551707 74.9,130.61 L74.9,130.61 Z"/>
      <path fill="#FFF" d="M74.9,130.61 C62.5982876,126.309882 49.2017124,126.309882 36.9,130.61 C34.3460435,131.563397 31.4813785,130.471484 30.21,128.06 L30.21,128.06 C29.07,125.65 30.6,122.53 33.7,121.44 C48.0674088,116.419704 63.7125912,116.419704 78.08,121.44 C81.18,122.52 82.71,125.65 81.57,128.06 L81.57,128.06 C80.2999214,130.461471 77.4482051,131.551707 74.9,130.61 L74.9,130.61 Z" opacity=".7"/>
    </g>
    <g transform="translate(65 115)">
      <path fill="#263238" d="M60.49,23.39 C60.28,23.98 60.43,24.57 60.82,24.7 C61.21,24.83 61.69,24.47 61.89,23.88 C62.09,23.29 61.95,22.69 61.57,22.56 C61.19,22.43 60.7,22.79 60.49,23.39 Z"/>
      <path fill="#A02724" d="M60.38,24 C60.461543,26.0590324 60.8214786,28.0975463 61.45,30.06 C60.4305529,30.3480576 59.3363032,30.1802726 58.45,29.6 L60.38,24 Z"/>
      <path fill="#263238" d="M59.53,19.37 C59.6036221,19.400556 59.6863779,19.400556 59.76,19.37 C60.6510918,19.0861056 61.6236045,19.2340163 62.39,19.77 C62.4693778,19.8288818 62.5690136,19.8535591 62.6666971,19.8385309 C62.7643805,19.8235027 62.8519914,19.7700182 62.91,19.69 C63.0238421,19.5502501 63.0238421,19.3497499 62.91,19.21 C61.9568838,18.5017619 60.720588,18.2969539 59.59,18.66 C59.4004999,18.7305244 59.2994133,18.9370927 59.36,19.13 C59.3942219,19.2397987 59.4802013,19.3257781 59.59,19.36 L59.53,19.37 Z"/>
      <path fill="#B55B52" d="M38.56,25.57 C39.68,31.26 40.79,41.69 36.81,45.49 C36.81,45.49 38.37,51.26 48.95,51.26 C60.58,51.26 54.51,45.49 54.51,45.49 C48.16,43.97 49.18,39.26 50.29,34.84 L38.56,25.57 Z"/>
      <path fill="#B55B52" d="M41.15,15.25 C39.07,22.69 37.47,26.94 39.85,31.95 C43.42,39.5 55.9,40.48 59.3,31.84 C61.89,23.84 64.45,15.47 58.3,10.1 C55.5660314,7.6789594 51.7744485,6.8439662 48.2763847,7.89257087 C44.778321,8.94117554 42.071311,11.7242336 41.12,15.25 L41.15,15.25 Z"/>
      <path fill="#263238" d="M33.09,17.73 C32.55,14.99 32.41,11.99 33.78,9.55 C35.15,7.11 38.46,5.62 40.87,7.04 C43.0184922,2.51469539 47.8095146,-0.140732135 52.7856665,0.435733453 C57.7618185,1.01219904 61.8188585,4.69263616 62.8758585,9.58928313 C63.9328586,14.4859301 61.7552633,19.5121881 57.46,22.09 C58.01,20.04 58.57,18 59.12,15.95 C58.6287418,18.8042437 57.1142753,21.3816809 54.86,23.2 L55.86,17.07 C55.5413003,20.0038138 53.859091,22.6160552 51.32,24.12 L52.49,19.83 C51.8972332,21.802725 51.1412901,23.7226866 50.23,25.57 C49.23,26.72 48.59,34.24 45.15,34.48 C33.33,36.83 34.35,24.13 33.09,17.73 Z"/>
      <path fill="#B55B52" d="M49 21.29C48.8004165 23.1975226 49.2287656 25.1180712 50.22 26.76 51.55 28.9 53.5 28.08 54.22 25.89 54.86 23.89 54.93 20.44 53.08 19.05 51.23 17.66 49.28 19 49 21.29zM20.81 93.37C19.54 92.95 13.59 89.89 12.64 90.44 15.39 83.44 17.1 82.35 18.35 77.89 19.0574986 75.6389649 18.5548116 73.1822239 17.02 71.39 15.26 69.03 14.65 67.84 11.73 68.13 7.73 74.85 2.64 83.13.66 90.72-.01 93.27-.49 95.21 1.03 97.37 2.37 99.27 4.84 100.03 7.16 100.24 12.73 100.74 21 99.72 20.89 96.41 20.83 94.32 20.81 93.37 20.81 93.37z"/>
      <path fill="#B55B52" d="M19.87,93.12 L24.59,91.59 L24.17,100.12 C24.17,100.12 20.39,100.25 18.37,97.72 L19.87,93.12 Z"/>
      <polygon fill="#B55B52" points="30.49 91.45 29.82 98.49 24.17 100.12 24.59 91.59"/>
      <path fill="#B55B52" d="M84.61 99.18C84.61 99.18 78 94 69.38 77 68.1 74.62 66.88 72.21 65.7 69.79 64.52 67.37 63.4 64.95 62.32 62.38L72.54 57.98C74.64 62.56 77.92 67.29 80.24 71.84 82.56 76.39 88.03 87.17 88.72 88.17 89.06 88.69 89.43 89.12 89.78 89.6L90.31 90.3 83.72 97.92 84.61 99.18zM93.26 66L91.26 63.56 90.32 59.91 96.49 54.18C97.433608 55.3797589 98.2733097 56.6577114 99 58 99.1588627 58.3085966 99.2346807 58.6532239 99.22 59L98.97 65.43 93.26 66z"/>
      <polygon fill="#B55B52" points="90.36 55.97 94.97 51.78 96.43 54.23 90.27 59.93"/>
      <path fill="#B55B52" d="M93.35,64.24 C93.51,63.55 93.65,64.9 94.11,64.36 C95.47,62.72 97.45,62.55 98.63,64.36 C99.81,66.17 98.8,83.98 96.92,89.57 C95.67,93.28 95,96.24 91.8,98.5 C90.5066488,99.4979 88.9326318,100.064546 87.3,100.120311 C85.6401178,100.139991 84.1190845,99.1961705 83.4,97.7 C82.4,95.37 85.98,86.97 87.24,84.26 C91.19,75.73 91.46,72.3 93.35,64.24 Z"/>
      <path fill="#407BFF" d="M80.12,63.47 L88.29,63.39 C89.4558897,63.4647709 90.6238668,63.2803535 91.71,62.85 C93.0407969,62.0731178 94.0352192,60.8291988 94.5,59.36 C95.66,56.36 95.76,53.14 96.21,50 C96.66,46.86 97.62,43.56 100,41.45 C95.66,42.03 88,40.67 84.65,44.22 C82.89,46.11 79.78,63.47 80.12,63.47 Z"/>
      <path fill="#FFF" d="M80.12,63.47 L88.29,63.39 C89.4558897,63.4647709 90.6238668,63.2803535 91.71,62.85 C93.0407969,62.0731178 94.0352192,60.8291988 94.5,59.36 C95.66,56.36 95.76,53.14 96.21,50 C96.66,46.86 97.62,43.56 100,41.45 C95.66,42.03 88,40.67 84.65,44.22 C82.89,46.11 79.78,63.47 80.12,63.47 Z" opacity=".5"/>
      <path fill="#B55B52" d="M94.1,51.33 L94.1,51.33 C93.63,51.46 93.32,53.13 93.42,53.61 L93.88,54.43 L94.81,58.43 L97.93,56.71 L95.12,51.71 C94.8994389,51.3742127 94.4864999,51.2203726 94.1,51.33 Z"/>
      <path fill="#407BFF" d="M23.63,46.92 C16.33,48.59 5.53,71.34 5.53,71.34 L20.18,81.34 C24.3990195,75.3198173 28.2076441,69.0222233 31.58,62.49 C35.91,53.43 31.09,45.21 23.63,46.92 Z"/>
      <path fill="#263238" d="M34.29,47.47 C33.45,45.64 32.54,43.55 34.43,42.9 C36.52,42.18 47.96,41.44 51.9,42.79 C52.942397,43.0728595 53.8291196,43.7594183 54.363985,44.6977786 C54.8988503,45.6361389 55.0377669,46.748947 54.75,47.79 L54.75,47.86 L34.29,47.47 Z"/>
      <path fill="#000" d="M28.14,60.06 L17.73,79.66 L20.18,81.34 C20.18,81.34 24.9,74.77 28.18,69.09 L28.14,60.06 Z" opacity=".2"/>
      <path fill="#407BFF" d="M68,56.93 C69.58,64.93 65.89,83.93 65.93,114.93 L24.31,114.93 C24.04,108.67 28.6,93.83 22.93,64.27 C22.75,63.27 22.67,47.12 23.63,46.95 C27.6603081,46.245549 31.7265327,45.7648131 35.81,45.51 C41.7051016,45.1699977 47.6148984,45.1699977 53.51,45.51 C55.92,45.76 59.71,47.25 62.11,48.11 C65.84,49.43 67.24,53 68,56.93 Z"/>
      <path fill="#000" d="M57,64.88 C58.08,71.45 62.39,80.13 66.68,85.23 C66.85,81.5 67.23,77.6 67.22,74.61 L57,64.88 Z" opacity=".2"/>
      <path fill="#407BFF" d="M54,55 C53,62.37 67.5,81.18 67.5,81.18 L82.09,71.18 C82.09,71.18 78.04,60.81 71.23,54.01 C63.5,46.23 55.17,47 54,55 Z"/>
      <polygon fill="#B55B52" points="101.72 218.13 109.5 218.13 111.27 200.1 103.49 200.1"/>
      <polygon fill="#000" points="111.15 201.19 110.25 210.48 102.46 210.48 103.37 201.19" opacity=".2"/>
      <polygon fill="#B55B52" points="71.03 218.13 78.81 218.13 82.72 200.1 74.94 200.1"/>
      <polygon fill="#000" points="2.77 .06 10.55 .06 8.53 9.35 .75 9.35" opacity=".2" transform="translate(72 201)"/>
      <path fill="#263238" d="M109.94,214.63 L101.45,214.63 C101.087591,214.672255 100.80635,214.966089 100.78,215.33 L99.24,224.23 C99.0571514,224.942645 99.4109519,225.683942 100.08,225.99 C100.172762,226.004607 100.267238,226.004607 100.36,225.99 C103.42,225.93 107.85,225.69 111.7,225.69 C116.21,225.69 120.1,226 125.38,226 C128.58,226 129.47,221.82 128.13,221.45 C122.04,219.73 117.07,219.55 111.81,215.34 C111.286243,214.896379 110.626201,214.645775 109.94,214.63 L109.94,214.63 Z"/>
      <path fill="#407BFF" d="M116.12,217.52 C117.12,217.52 118.12,217.38 118.41,216.93 C118.579121,216.686483 118.579121,216.363517 118.41,216.12 C118.276963,215.909438 118.070137,215.756102 117.83,215.69 C116.53,215.34 113.83,216.89 113.7,216.96 C113.62974,216.994967 113.592547,217.073485 113.61,217.15 C113.620811,217.224307 113.676614,217.284096 113.75,217.3 C114.53128,217.448013 115.324825,217.521675 116.12,217.52 L116.12,217.52 Z M117.36,216.01 L117.71,216.01 C117.861732,216.041032 117.992836,216.135719 118.07,216.27 C118.2,216.5 118.16,216.61 118.07,216.67 C117.71,217.18 115.74,217.19 114.29,216.98 C115.243833,216.466079 116.284818,216.133777 117.36,216 L117.36,216.01 Z"/>
      <path fill="#407BFF" d="M113.77,217.3 L113.85,217.3 C114.79,216.88 116.65,215.2 116.5,214.3 C116.5,214.09 116.32,213.84 115.82,213.78 C115.457776,213.7529 115.099199,213.867645 114.82,214.1 C113.82,214.91 113.62,217.01 113.61,217.1 C113.600453,217.165208 113.627305,217.230421 113.68,217.27 C113.706277,217.288868 113.737657,217.299328 113.77,217.3 Z M115.67,214.15 L115.78,214.15 C116.11,214.15 116.13,214.32 116.14,214.36 C116.23,214.89 114.96,216.21 114,216.78 C114.081601,215.899945 114.430558,215.065937 115,214.39 C115.190569,214.237967 115.426242,214.153547 115.67,214.15 Z"/>
      <path fill="#263238" d="M79.36,214.63 L70.62,214.63 C70.2596087,214.672906 69.9816507,214.96771 69.96,215.33 L68.42,224.23 C68.2474201,224.95785 68.6228309,225.704453 69.31,226 C69.3930471,226.009769 69.4769529,226.009769 69.56,226 C72.61,225.94 74.1,225.7 77.94,225.7 C80.31,225.7 83.34,226.01 86.61,226.01 C89.88,226.01 90.3,221.83 88.96,221.46 C82.96,219.76 82.55,217.46 80.63,215.18 C80.3077271,214.819406 79.8434795,214.618354 79.36,214.63 Z"/>
      <path fill="#407BFF" d="M83.93,218.51 C84.5967851,218.601893 85.2721925,218.417691 85.8,218 C85.9884743,217.740623 85.9884743,217.389377 85.8,217.13 C85.6801732,216.907598 85.4676272,216.75002 85.22,216.7 C84.08,216.43 81.93,217.9 81.84,217.96 C81.7819423,218.004986 81.7516059,218.077035 81.76,218.15 C81.7718733,218.221831 81.8281692,218.278127 81.9,218.29 C82.5665143,218.43778 83.247301,218.51156 83.93,218.51 L83.93,218.51 Z M84.93,217.03 L85.15,217.03 C85.2928243,217.056792 85.4169271,217.144394 85.49,217.27 C85.66,217.58 85.56,217.7 85.49,217.75 C85.16,218.18 83.57,218.19 82.4,218 C83.1517194,217.483836 84.0092823,217.142178 84.91,217 L84.93,217.03 Z"/>
      <path fill="#407BFF" d="M82,218.3 L82,218.3 C82.81,217.86 84.37,216.16 84.2,215.3 C84.1470144,215.015886 83.8990126,214.809918 83.61,214.81 C83.3283895,214.782697 83.0475506,214.869109 82.83,215.05 C81.93,215.79 81.74,218.05 81.73,218.13 C81.7269805,218.198788 81.7614128,218.263827 81.82,218.3 L82,218.3 Z M83.57,215.15 L83.65,215.15 C83.89,215.15 83.91,215.29 83.92,215.34 C84.02,215.85 83.02,217.14 82.22,217.75 C82.2820393,216.864326 82.6018422,216.016154 83.14,215.31 C83.2600368,215.207723 83.4123035,215.151066 83.57,215.15 Z"/>
      <path fill="#263238" d="M53.46,114.91 C53.46,114.91 90.31,130.13 97.93,141.82 C93.4,171.56 85.27,205.44 85.27,205.44 L71.41,205.44 C71.4320303,190.780697 72.6325643,176.14689 75,161.68 C77,125.33 11.58,162.94 24.29,114.91 L53.46,114.91 Z"/>
      <path fill="#000" d="M78.94,140 C76.3586844,140.152152 73.7879626,140.449288 71.24,140.89 L63.17,142.13 C67.3328489,145.627667 71.7260836,148.841578 76.32,151.75 C79.11,153.52 82.15,155.22 85.44,155.23 C89.14,155.23 99.18,150.49 97.52,145.56 C95.86,140.63 83.14,139.82 78.94,140 Z" opacity=".3"/>
      <path fill="#263238" d="M65.94,114.91 C65.94,114.91 100,119.31 118.78,130 C124.56,133.29 123.78,143.86 123.6,150.82 C123.197365,169.496866 119.612649,187.9683 113,205.44 L101.42,205.44 C101.42,205.44 102.01,186.57 101.62,156.12 C101.5,146.99 83.07,143.98 65.06,142.92 C49.5026841,141.941857 35.8458027,132.226249 29.82,117.85 L28.59,114.91 L65.94,114.91 Z"/>
      <path fill="#407BFF" d="M115.81 202.34C115.87 202.34 115.06 207.81 115.06 207.81L99.06 207.81 98.62 202.93 115.81 202.34zM86.61 202.34C86.67 202.34 85.14 207.81 85.14 207.81L69.14 207.81 69.43 202.93 86.61 202.34z"/>
      <polygon fill="#407BFF" points="43.62 142.51 32.15 227.02 30.08 226.73 38.93 141.87"/>
      <polygon fill="#000" points="43.21 145.54 32.15 227.02 30.08 226.73 38.55 145.52" opacity=".4"/>
      <path fill="#407BFF" d="M83.94,145.53 L18.94,145.53 C18.94,143.562094 19.7217478,141.674788 21.1132677,140.283268 C22.5047876,138.891748 24.3920936,138.11 26.36,138.11 L76.52,138.11 C80.6179528,138.11 83.94,141.432047 83.94,145.53 L83.94,145.53 Z"/>
      <path fill="#FFF" d="M83.94,145.53 L18.94,145.53 C18.94,143.562094 19.7217478,141.674788 21.1132677,140.283268 C22.5047876,138.891748 24.3920936,138.11 26.36,138.11 L76.52,138.11 C80.6179528,138.11 83.94,141.432047 83.94,145.53 L83.94,145.53 Z" opacity=".7"/>
      <polygon fill="#407BFF" points="21.95 145.52 12.15 227.69 14.25 227.69 26.68 145.52"/>
      <polygon fill="#407BFF" points="80.93 145.52 90.73 227.69 88.63 227.69 76.21 145.52"/>
      <polygon fill="#000" points="80.93 145.52 90.73 227.69 88.63 227.69 76.21 145.52" opacity=".4"/>
      <polygon fill="#407BFF" points="67.82 145.52 68.01 227.69 65.92 227.69 63.09 145.52"/>
    </g>
  </g>
</svg>
